<?xml version="1.0" standalone="no"?>
<!DOCTYPE svg PUBLIC "-//W3C//DTD SVG 20010904//EN"
 "http://www.w3.org/TR/2001/REC-SVG-20010904/DTD/svg10.dtd">
<svg version="1.0" xmlns="http://www.w3.org/2000/svg"
 width="391.000000pt" height="391.000000pt" viewBox="0 0 391.000000 391.000000"
 preserveAspectRatio="xMidYMid meet">
<metadata>
Created by potrace 1.11, written by Peter Selinger 2001-2013
</metadata>
<g transform="translate(0.000000,391.000000) scale(0.100000,-0.100000)"
fill="#000000" stroke="none">
<path d="M1877 3758 c-111 -23 -251 -133 -296 -231 -37 -80 -42 -98 -48 -172
-17 -220 140 -427 357 -468 l60 -12 0 -160 0 -160 -84 -16 c-48 -10 -113 -31
-151 -50 -73 -37 -167 -116 -206 -173 -13 -20 -28 -36 -33 -36 -7 0 -264 145
-274 155 -2 2 6 30 18 62 27 73 29 195 5 268 -65 193 -230 317 -425 318 -94 0
-117 -5 -195 -42 -283 -132 -348 -500 -127 -720 55 -56 132 -104 183 -115 68
-16 107 -21 134 -20 128 4 233 50 321 139 l61 62 42 -28 c23 -16 43 -29 45
-29 3 0 168 -95 183 -105 2 -1 -6 -24 -17 -52 -27 -72 -31 -96 -35 -195 -3
-90 18 -196 51 -260 9 -17 14 -31 12 -32 -4 -4 -133 -77 -176 -101 -20 -11
-39 -22 -42 -25 -3 -3 -18 -12 -34 -20 -29 -15 -30 -15 -90 46 -203 202 -527
170 -685 -67 -119 -178 -95 -406 58 -560 270 -269 734 -94 756 285 4 71 -11
161 -33 202 -13 25 -11 28 58 65 25 13 47 26 50 29 3 3 25 16 50 29 25 14 60
34 79 46 l35 21 75 -75 c81 -82 157 -128 255 -156 69 -20 83 -23 114 -24 22
-1 22 -2 22 -171 0 -170 0 -170 -22 -170 -66 0 -194 -59 -254 -117 -232 -222
-180 -590 104 -730 76 -38 77 -38 202 -38 121 0 128 1 191 32 115 57 220 185
244 298 12 56 12 160 0 210 -39 167 -181 303 -351 338 l-59 12 0 165 c1 156 2
165 20 168 87 14 188 48 245 81 67 40 146 110 177 157 l16 24 36 -21 c61 -37
104 -61 148 -85 23 -13 55 -31 70 -40 15 -10 29 -19 31 -20 2 -1 -6 -29 -17
-61 -61 -181 4 -383 160 -498 176 -130 418 -113 573 40 137 136 174 339 92
508 -19 40 -51 89 -71 110 -142 153 -364 189 -549 89 -49 -27 -124 -93 -142
-125 -8 -15 -28 -6 -152 65 -104 60 -142 86 -138 98 2 8 14 41 25 73 32 87 40
169 28 273 -7 54 -38 158 -51 172 -3 2 59 41 137 86 l142 82 25 -30 c120 -145
302 -201 480 -150 237 69 376 334 297 569 -64 192 -246 319 -442 309 -128 -7
-225 -51 -312 -142 -107 -112 -152 -315 -98 -445 8 -20 15 -43 15 -51 0 -12
-137 -98 -244 -154 -29 -15 -30 -14 -60 24 -107 133 -233 208 -386 229 -25 4
-47 10 -50 15 -6 10 -6 308 1 314 2 2 20 7 39 10 140 22 265 116 330 250 33
69 44 124 42 211 -8 269 -273 471 -545 413z m263 -84 c151 -72 238 -224 224
-390 -6 -63 -58 -186 -91 -217 -18 -16 -23 -15 -94 16 -41 18 -83 38 -93 44
-27 15 -29 77 -5 117 10 17 19 43 19 58 0 15 5 30 11 33 19 12 30 55 19 75 -6
10 -12 38 -15 62 -8 59 -34 99 -75 114 -55 20 -103 17 -141 -9 -41 -27 -59
-60 -59 -107 0 -20 -5 -41 -11 -47 -13 -13 -4 -83 10 -83 5 0 12 -17 16 -37 3
-21 13 -48 21 -61 9 -14 14 -40 12 -65 -3 -46 3 -40 -128 -101 l-55 -25 -26
25 c-15 14 -40 54 -56 87 -25 55 -28 73 -28 162 0 87 4 107 27 155 47 100 125
172 229 210 83 31 203 24 289 -16z m-1186 -682 c243 -114 308 -413 134 -614
l-23 -27 -78 38 c-84 41 -106 62 -107 102 0 23 3 25 43 23 23 -1 52 2 65 7 21
8 22 10 8 31 -19 31 -27 72 -30 171 -6 147 -47 198 -164 203 -59 3 -74 0 -103
-19 -52 -35 -72 -78 -75 -166 -5 -103 -12 -148 -29 -182 -14 -26 -14 -29 2
-37 10 -5 39 -9 66 -8 51 3 54 -1 36 -52 -9 -25 -25 -38 -92 -70 l-82 -40 -23
21 c-13 12 -39 54 -59 93 -131 266 70 571 368 559 62 -2 92 -9 143 -33z m2369
0 c110 -51 190 -149 221 -271 26 -101 -16 -266 -89 -343 l-25 -27 -73 36 c-92
46 -107 59 -107 97 0 32 0 32 54 31 30 0 58 3 61 7 4 4 0 24 -10 44 -11 24
-18 68 -21 128 -4 111 -8 128 -34 171 -29 47 -74 65 -154 62 -64 -3 -95 -18
-128 -62 -16 -21 -27 -83 -29 -160 -1 -49 -9 -99 -20 -129 -10 -28 -17 -52
-14 -54 2 -3 30 -6 62 -7 57 -2 58 -3 56 -30 -3 -39 -17 -52 -104 -95 l-76
-39 -25 27 c-136 146 -127 392 17 535 49 48 129 93 188 107 18 4 67 6 110 4
61 -2 92 -9 140 -32z m-1226 -512 c145 -33 283 -142 349 -275 100 -202 72
-409 -80 -599 -14 -18 -17 -18 -33 -4 -20 17 -108 59 -165 77 -77 25 -99 100
-54 182 13 24 26 61 29 81 3 20 12 44 20 53 24 24 32 82 14 103 -8 9 -17 43
-19 74 -8 105 -72 160 -185 161 -113 0 -181 -69 -183 -186 0 -21 -6 -45 -14
-52 -17 -17 -6 -77 18 -104 9 -10 16 -29 16 -42 0 -13 13 -51 28 -82 22 -44
28 -69 25 -100 -5 -52 -22 -67 -116 -103 -39 -15 -89 -38 -109 -50 l-37 -24
-30 37 c-174 212 -158 521 37 712 134 131 308 181 489 141z m-1138 -851 c196
-86 285 -327 193 -520 -17 -36 -42 -75 -55 -88 -23 -21 -27 -22 -49 -8 -12 9
-48 25 -80 37 -31 11 -61 26 -66 33 -18 22 -21 64 -6 92 7 15 19 45 25 68 6
23 16 49 23 57 15 20 20 70 7 70 -6 0 -11 17 -11 38 0 83 -60 142 -145 142
-74 0 -129 -53 -133 -129 -2 -18 -7 -41 -12 -51 -11 -20 6 -90 22 -90 5 0 8
-6 5 -14 -3 -7 5 -36 18 -64 24 -51 25 -93 4 -118 -6 -7 -40 -24 -77 -39 -37
-15 -73 -32 -81 -38 -11 -9 -20 -4 -42 23 -63 75 -96 185 -84 283 29 261 305
421 544 316z m2361 -5 c173 -82 264 -286 205 -464 -21 -66 -83 -163 -99 -156
-6 2 -45 19 -86 36 -41 18 -81 39 -87 48 -19 24 -16 77 8 116 11 19 18 39 15
44 -3 4 4 21 15 38 20 31 25 79 9 89 -5 3 -10 24 -10 47 0 76 -55 128 -134
128 -82 0 -134 -47 -141 -129 -2 -20 -8 -47 -13 -61 -10 -26 -1 -63 17 -75 6
-3 11 -16 11 -28 0 -12 9 -39 20 -60 26 -49 26 -91 -2 -117 -12 -11 -27 -20
-32 -20 -6 0 -40 -14 -75 -30 l-63 -30 -24 27 c-59 67 -97 193 -87 283 13 119
75 221 173 286 80 54 117 64 230 60 71 -2 96 -7 150 -32z m-1203 -666 c66 -24
142 -84 181 -140 80 -118 93 -268 34 -388 -18 -36 -44 -78 -58 -94 l-26 -29
-80 39 c-91 44 -93 46 -102 94 l-6 35 59 0 c33 0 62 3 65 6 3 3 -2 21 -11 40
-11 22 -19 71 -23 139 -7 120 -23 167 -70 200 -42 30 -128 34 -186 8 -63 -28
-85 -77 -89 -198 -3 -71 -9 -111 -24 -144 l-20 -45 35 -7 c19 -3 48 -4 64 -2
27 4 30 2 30 -22 0 -41 -26 -68 -103 -104 -83 -40 -91 -38 -135 32 -40 61 -62
123 -66 185 -18 286 264 495 531 395z"/>
</g>
</svg>
