<?xml version="1.0" standalone="no"?>
<!DOCTYPE svg PUBLIC "-//W3C//DTD SVG 20010904//EN"
 "http://www.w3.org/TR/2001/REC-SVG-20010904/DTD/svg10.dtd">
<svg version="1.0" xmlns="http://www.w3.org/2000/svg"
 width="700.000000pt" height="700.000000pt" viewBox="0 0 700.000000 700.000000"
 preserveAspectRatio="xMidYMid meet">
<metadata>
Created by potrace 1.11, written by Peter Selinger 2001-2013
</metadata>
<g transform="translate(0.000000,700.000000) scale(0.100000,-0.100000)"
fill="#000000" stroke="none">
<path d="M5351 6520 c0 -352 3 -473 12 -481 7 -6 109 -69 227 -140 118 -71
222 -133 230 -138 109 -69 207 -126 214 -126 12 0 12 933 0 944 -5 4 -76 49
-159 98 -82 50 -233 140 -334 202 -101 61 -185 111 -187 111 -2 0 -3 -212 -3
-470z"/>
<path d="M3075 6712 c-110 -65 -558 -329 -995 -586 -437 -258 -871 -514 -965
-570 -93 -55 -181 -107 -195 -114 -13 -7 -40 -23 -60 -35 -19 -12 -47 -29 -61
-37 -91 -53 -178 -103 -204 -119 -16 -10 -150 -89 -297 -175 l-268 -158 0
-580 0 -580 22 14 c13 8 101 59 196 114 95 54 191 109 213 122 36 21 39 21 40
5 0 -10 1 -520 2 -1133 l2 -1115 80 -47 c44 -26 91 -53 105 -60 14 -8 201
-116 416 -240 215 -125 406 -235 425 -246 19 -10 69 -40 112 -66 43 -25 80
-46 82 -46 1 0 63 -36 138 -79 74 -43 154 -90 178 -104 24 -13 157 -89 294
-169 138 -79 358 -207 490 -283 132 -76 331 -191 442 -256 l202 -117 162 94
c89 52 164 94 167 94 3 0 13 6 21 14 9 7 41 27 71 43 50 27 168 95 410 236 47
27 128 74 180 104 52 30 109 62 125 72 17 10 53 30 80 45 28 16 55 32 60 36 6
4 30 18 55 32 39 21 429 247 531 307 19 11 50 28 69 39 19 11 134 77 255 147
121 70 238 138 260 150 22 13 91 53 153 88 l113 65 -118 70 c-102 60 -701 407
-992 575 -51 29 -45 31 -178 -49 -40 -24 -75 -44 -78 -44 -3 0 -18 -8 -33 -19
-15 -10 -139 -83 -277 -162 -137 -79 -257 -148 -267 -154 -9 -5 -29 -17 -45
-26 -15 -8 -163 -93 -328 -189 -165 -95 -322 -185 -349 -200 l-49 -28 -51 31
c-28 16 -181 105 -341 197 -159 92 -436 252 -615 355 -179 103 -338 196 -355
205 -16 9 -54 31 -83 49 -29 17 -55 31 -57 31 -3 0 -33 17 -67 38 -35 21 -88
52 -118 69 -30 17 -69 39 -87 49 l-32 19 2 1045 2 1045 705 407 c388 224 751
434 807 465 l103 58 -3 687 c-1 379 -2 688 -2 688 0 0 -90 -54 -200 -118z"/>
<path d="M3663 6537 c-3 -530 -4 -1080 -1 -1082 4 -3 248 -144 308 -177 25
-14 139 -80 254 -147 115 -66 211 -121 214 -121 3 0 13 -6 21 -14 9 -7 41 -27
71 -43 30 -17 84 -47 120 -68 36 -20 79 -45 95 -55 17 -9 85 -49 152 -88 67
-39 145 -84 175 -100 29 -17 87 -50 128 -74 l75 -45 1 -948 c0 -919 1 -948 19
-962 11 -7 83 -50 160 -94 77 -44 147 -84 155 -89 20 -12 253 -146 310 -178
25 -14 73 -43 108 -64 34 -21 64 -38 66 -38 6 0 257 -148 271 -160 8 -7 15 -9
15 -6 0 4 10 0 22 -8 12 -9 25 -16 28 -16 3 0 6 464 6 1031 -1 567 1 1032 4
1034 3 1 19 -6 35 -16 17 -10 36 -22 44 -26 8 -3 76 -42 150 -86 75 -43 160
-92 189 -108 l52 -30 0 579 0 579 -131 78 c-72 42 -145 85 -163 94 -17 10 -84
50 -149 90 -65 39 -120 71 -123 71 -2 0 -21 11 -42 24 -20 13 -93 56 -162 97
-69 40 -190 112 -270 159 -80 47 -214 126 -298 176 -84 49 -167 98 -185 108
-18 11 -41 24 -52 30 -11 6 -31 19 -45 27 -14 9 -108 65 -210 124 -102 60
-218 128 -259 153 -41 24 -88 52 -105 62 -17 9 -159 93 -316 185 -157 93 -294
173 -305 179 -11 6 -31 19 -45 27 -97 62 -369 219 -379 219 -3 0 -7 -127 -8
-283z"/>
</g>
</svg>
