<?xml version="1.0" encoding="UTF-8"?>
<!DOCTYPE svg PUBLIC "-//W3C//DTD SVG 1.1//EN" "http://www.w3.org/Graphics/SVG/1.1/DTD/svg11.dtd">
<svg version="1.1" xmlns="http://www.w3.org/2000/svg" xmlns:xlink="http://www.w3.org/1999/xlink" x="0" y="0" width="1500" height="850" viewBox="0, 0, 1500, 850">
  <defs>
    <linearGradient id="Gradient_1" gradientUnits="userSpaceOnUse" x1="761.154" y1="238.592" x2="761.154" y2="707.058">
      <stop offset="0" stop-color="#424B8E"/>
      <stop offset="0.183" stop-color="#424B8E"/>
      <stop offset="0.823" stop-color="#27255C"/>
      <stop offset="1" stop-color="#27255C"/>
    </linearGradient>
    <linearGradient id="Gradient_2" gradientUnits="userSpaceOnUse" x1="761.154" y1="238.592" x2="761.154" y2="707.058">
      <stop offset="0" stop-color="#424B8E"/>
      <stop offset="0.183" stop-color="#424B8E"/>
      <stop offset="0.823" stop-color="#27255C"/>
      <stop offset="1" stop-color="#27255C"/>
    </linearGradient>
    <linearGradient id="Gradient_3" gradientUnits="userSpaceOnUse" x1="761.154" y1="238.592" x2="761.154" y2="707.058">
      <stop offset="0" stop-color="#424B8E"/>
      <stop offset="0.183" stop-color="#424B8E"/>
      <stop offset="0.823" stop-color="#27255C"/>
      <stop offset="1" stop-color="#27255C"/>
    </linearGradient>
    <linearGradient id="Gradient_4" gradientUnits="userSpaceOnUse" x1="761.154" y1="238.592" x2="761.154" y2="707.058">
      <stop offset="0" stop-color="#424B8E"/>
      <stop offset="0.183" stop-color="#424B8E"/>
      <stop offset="0.823" stop-color="#27255C"/>
      <stop offset="1" stop-color="#27255C"/>
    </linearGradient>
    <linearGradient id="Gradient_5" gradientUnits="userSpaceOnUse" x1="761.154" y1="238.592" x2="761.154" y2="707.058">
      <stop offset="0" stop-color="#424B8E"/>
      <stop offset="0.183" stop-color="#424B8E"/>
      <stop offset="0.823" stop-color="#27255C"/>
      <stop offset="1" stop-color="#27255C"/>
    </linearGradient>
    <linearGradient id="Gradient_6" gradientUnits="userSpaceOnUse" x1="761.154" y1="238.592" x2="761.154" y2="707.058">
      <stop offset="0" stop-color="#424B8E"/>
      <stop offset="0.183" stop-color="#424B8E"/>
      <stop offset="0.823" stop-color="#27255C"/>
      <stop offset="1" stop-color="#27255C"/>
    </linearGradient>
  </defs>
  <g id="Layer_1">
    <path d="M88.561,258.06 L308.972,258.06 L308.972,301.194 L132.525,301.194 L132.525,439.278 L308.972,439.278 L308.972,482.41 L132.525,482.41 L132.525,698.671 L88.561,698.671 L88.561,258.06 z" fill="url(#Gradient_1)"/>
    <path d="M372.372,372.78 L414.24,372.78 L414.24,698.67 L372.372,698.67 z M393.157,238.593 C402.685,238.593 410.826,241.988 417.574,248.775 C424.322,255.566 427.699,263.753 427.699,273.338 C427.699,282.726 424.322,290.812 417.574,297.599 C410.826,304.39 402.685,307.784 393.157,307.784 C383.826,307.784 375.784,304.39 369.036,297.599 C362.288,290.812 358.915,282.726 358.915,273.338 C358.915,263.753 362.288,255.566 369.036,248.775 C375.784,241.988 383.826,238.593 393.157,238.593" fill="url(#Gradient_2)"/>
    <path d="M464.186,372.78 L514.429,372.78 L600.968,491.999 L686.599,372.78 L736.932,372.78 L626.179,526.731 L750.988,698.671 L699.992,698.671 L600.957,561.799 L502.489,698.671 L452.521,698.671 L575.801,527.035 L464.186,372.78 z" fill="url(#Gradient_3)"/>
    <path d="M929.227,246.979 L929.227,288.014 C913.875,281.424 900.714,278.129 889.752,278.129 C881.574,278.129 874.799,279.777 869.417,283.072 C864.033,286.367 860.64,290.163 859.246,294.455 C857.853,298.75 857.155,310.179 857.155,328.75 L857.118,372.78 L925.044,372.78 L925.044,409.024 L857.089,409.024 L856.855,698.67 L814.985,698.67 L814.985,409.024 L772.222,409.024 L772.222,372.78 L814.985,372.78 L814.985,321.86 C814.985,298.498 817.126,281.827 821.417,271.839 C825.702,261.856 832.976,253.82 843.248,247.727 C853.512,241.638 865.928,238.593 880.482,238.593 C894.037,238.593 910.288,241.391 929.227,246.979 z" fill="url(#Gradient_4)"/>
    <path d="M981.266,246.979 L1023.136,246.979 L1023.136,698.671 L981.266,698.671 z" fill="url(#Gradient_5)"/>
    <path d="M1264.029,405.43 C1229.215,405.43 1199.3,418.31 1174.291,444.07 C1149.284,469.829 1136.777,500.98 1136.777,537.524 C1136.777,561.087 1142.479,583.051 1153.883,603.42 C1165.287,623.787 1180.693,639.513 1200.105,650.597 C1219.511,661.678 1240.82,667.22 1264.029,667.22 C1287.235,667.22 1308.542,661.678 1327.955,650.597 C1347.361,639.513 1362.767,623.787 1374.173,603.42 C1385.575,583.051 1391.279,561.087 1391.279,537.524 C1391.279,500.98 1378.724,469.829 1353.614,444.07 C1328.5,418.31 1298.639,405.43 1264.029,405.43 z M1264.18,364.394 C1314.309,364.394 1355.85,382.567 1388.808,418.909 C1418.767,452.06 1433.747,491.297 1433.747,536.625 C1433.747,582.152 1417.915,621.945 1386.261,655.988 C1354.603,690.035 1313.906,707.057 1264.18,707.057 C1214.244,707.057 1173.449,690.035 1141.794,655.988 C1110.136,621.945 1094.309,582.152 1094.309,536.625 C1094.309,491.498 1109.287,452.357 1139.25,419.209 C1172.202,382.665 1213.848,364.394 1264.18,364.394" fill="url(#Gradient_6)"/>
    <g>
      <path d="M758.66,16.485 C767.109,17.858 763.586,16.845 769.391,18.899 L1436.239,301.033 L1412.167,357.93 L759.984,82.001 L486.414,250.359 L454.034,197.744 L741.165,21.04 C747.395,17.142 751.626,17.019 758.66,16.485 z" fill="#8A8B8A"/>
      <path d="M1434.367,763.141 L1434.367,824.921 L80.346,824.921 L80.346,763.141 L1434.367,763.141 z" fill="#8A8B8A"/>
    </g>
  </g>
</svg>
