<svg xmlns="http://www.w3.org/2000/svg" viewBox="0 0 992.51 203.71"><defs><style>.cls-1{fill:#4c555e;}.cls-2{fill:#f15b25;}</style></defs><title>VitalSpaceLogo-2016-orange</title><g id="Layer_2" data-name="Layer 2"><g id="Layer_1-2" data-name="Layer 1"><path class="cls-1" d="M307.48,44H317.7l-34.33,84.27H272.31L240.21,44h11.94l26.73,70.64Z"/><path class="cls-1" d="M347.79,128.26h-11V44h11Z"/><path class="cls-1" d="M395.57,128.26V52.4H366.9V44h67.88V52.4H406.54v75.86Z"/><path class="cls-1" d="M457.72,128.26H447.57L482.08,44h11.09l31.89,84.27H513.22l-8.74-23.19H467.24Zm12.84-31.6h30.7L486.45,57.51Z"/><path class="cls-1" d="M544.15,128.26V44h11v75h44.2v9.29Z"/><path class="cls-1" d="M616.42,109.36h11v.55q0,7,4.94,9.74t13.15,2.74a17.78,17.78,0,0,0,12-4.18,13.85,13.85,0,0,0,4.86-11,11.31,11.31,0,0,0-4.18-9.07q-4.17-3.48-12.68-7l-4.4-1.79q-8.94-3.7-13.37-7.31a24.46,24.46,0,0,1-6.59-8A22.07,22.07,0,0,1,619,64.2a21.68,21.68,0,0,1,6.75-16.14q6.75-6.57,21.13-6.57,13.17,0,18.55,4.89a15,15,0,0,1,5.37,11.4v.54h-11v-.54a6.38,6.38,0,0,0-1.65-4.07,9.44,9.44,0,0,0-5-2.91,28.12,28.12,0,0,0-7.27-.89q-8.07,0-11.95,4a13,13,0,0,0-3.87,9.22A12.47,12.47,0,0,0,632,69.71,15.11,15.11,0,0,0,637,74.79a95.19,95.19,0,0,0,10.87,5.38l5.16,2.23q12.36,5.37,16.54,11.29a21.93,21.93,0,0,1,4.12,12.75,24.57,24.57,0,0,1-3.37,12.3,22.14,22.14,0,0,1-9.34,9q-6,3.08-15.91,3.07a47.53,47.53,0,0,1-15.77-2.25,18.21,18.21,0,0,1-9.61-7.39,20.54,20.54,0,0,1-3.29-11.27v-.54Z"/><path class="cls-1" d="M706.29,128.26h-11V44h23.45q13.41,0,18.93,2.74a18.41,18.41,0,0,1,8.3,8,25.82,25.82,0,0,1,2.8,12.29,27,27,0,0,1-8.06,19.88q-8.07,8-24,8H706.29v33.29Zm0-41.7h7.39q14.55,0,19.17-5.61a20.47,20.47,0,0,0,4.61-13.43q0-6.79-3.72-11T719,52.4H706.29Z"/><path class="cls-1" d="M773.55,128.26H763.4L797.9,44H809l31.88,84.27H829l-8.74-23.19H783.07Zm12.83-31.6h30.71L802.27,57.51Z"/><path class="cls-1" d="M910.15,110.18h10.09v.54a18.15,18.15,0,0,1-3.44,10.13,20.13,20.13,0,0,1-9.37,7.55,36.67,36.67,0,0,1-13.9,2.41q-16.08,0-26.28-11.18T857,86.15Q857,64,867.19,52.72t26.4-11.23a36.49,36.49,0,0,1,13.84,2.41,20,20,0,0,1,9.37,7.64,18.3,18.3,0,0,1,3.45,10v.54h-10.1v-.54a10.46,10.46,0,0,0-1.94-5.95,11.66,11.66,0,0,0-5.54-4.29A23.42,23.42,0,0,0,894,49.9q-12.94,0-19.28,10.21t-6.33,26q0,16,6.36,26.12t19.19,10.15q8.8,0,12.51-3.62a11.07,11.07,0,0,0,3.7-8v-.54Z"/><path class="cls-1" d="M941.86,128.26V44h47.62v9.28H952.83V79.83h32v8.41h-32V119h39.58v9.29Z"/><path class="cls-2" d="M244.2,175.57h-3.86V146h3.86Z"/><path class="cls-2" d="M260.35,175.57H256.8V146h3.81l13.49,21,1.24,2.34-.08-2.32V146h3.55v29.55H275l-13.52-21.09-1.25-2.38.08,2.38v21.09Z"/><path class="cls-2" d="M291.45,175.57V146h8.16q6,0,8.72,1.62a10.8,10.8,0,0,1,4.32,4.94,19.14,19.14,0,0,1,1.55,8.09,19.7,19.7,0,0,1-1.4,7.76,11.71,11.71,0,0,1-4.24,5.21c-1.9,1.29-4.7,1.93-8.42,1.93Zm3.85-3.24h4.54a12.48,12.48,0,0,0,6.1-1.19,7.61,7.61,0,0,0,3.16-3.74,16.16,16.16,0,0,0,1.1-6.38,19.77,19.77,0,0,0-1-6.63,7.72,7.72,0,0,0-3-4.08c-1.37-.88-3.5-1.32-6.42-1.32H295.3v23.34Z"/><path class="cls-2" d="M325.79,175.57V146H342.5v3.25H329.64v9.33h11.23v2.94H329.64v10.79h13.89v3.24Z"/><path class="cls-2" d="M359.11,175.57h-3.85V146h8.22q4.71,0,6.63,1A6.41,6.41,0,0,1,373,149.8a9,9,0,0,1,1,4.31,9.45,9.45,0,0,1-2.82,7q-2.82,2.82-8.42,2.82h-3.65v11.67Zm0-14.61h2.58q5.1,0,6.72-2a7.21,7.21,0,0,0,1.62-4.72,5.57,5.57,0,0,0-1.3-3.83q-1.31-1.45-5.17-1.46h-4.45Z"/><path class="cls-2" d="M385,175.57V146h16.7v3.25H388.88v9.33H400.1v2.94H388.88v10.79h13.89v3.24Z"/><path class="cls-2" d="M418,175.57H414.5V146h3.8l13.5,21,1.23,2.34L433,167V146h3.55v29.55h-3.77l-13.52-21.09L418,152.1l.07,2.38v21.09Z"/><path class="cls-2" d="M449.14,175.57V146h8.16q6,0,8.72,1.62a10.8,10.8,0,0,1,4.32,4.94,19.14,19.14,0,0,1,1.55,8.09,19.7,19.7,0,0,1-1.4,7.76,11.65,11.65,0,0,1-4.24,5.21c-1.9,1.29-4.7,1.93-8.42,1.93Zm3.85-3.24h4.54a12.48,12.48,0,0,0,6.1-1.19,7.61,7.61,0,0,0,3.16-3.74,16.16,16.16,0,0,0,1.1-6.38,19.52,19.52,0,0,0-1-6.63,7.72,7.72,0,0,0-3-4.08c-1.37-.88-3.5-1.32-6.42-1.32H453v23.34Z"/><path class="cls-2" d="M483.48,175.57V146h16.71v3.25H487.33v9.33h11.23v2.94H487.33v10.79h13.89v3.24Z"/><path class="cls-2" d="M516.49,175.57H513V146h3.8l13.5,21,1.23,2.34L531.4,167V146H535v29.55h-3.77l-13.51-21.09-1.25-2.38.07,2.38v21.09Z"/><path class="cls-2" d="M555.43,175.57V149h-10v-3h23.78v3h-9.9v26.58Z"/><path class="cls-2" d="M599.54,175.57V146h16.7v3.25H603.39v9.33h11.22v2.94H603.39v10.79h13.89v3.24Z"/><path class="cls-2" d="M628.27,168.93h3.85v.18a3.58,3.58,0,0,0,1.73,3.42,9.4,9.4,0,0,0,4.61,1,6.25,6.25,0,0,0,4.22-1.47,4.84,4.84,0,0,0,1.7-3.86,4,4,0,0,0-1.46-3.19,17.58,17.58,0,0,0-4.46-2.43l-1.54-.63a19,19,0,0,1-4.69-2.56,8.48,8.48,0,0,1-2.31-2.81,8,8,0,0,1,1.6-9.1q2.37-2.31,7.41-2.31,4.64,0,6.52,1.71a5.27,5.27,0,0,1,1.89,4v.2h-3.85v-.2a2.29,2.29,0,0,0-.58-1.43,3.26,3.26,0,0,0-1.75-1,9.68,9.68,0,0,0-2.55-.31,5.55,5.55,0,0,0-4.19,1.42,4.53,4.53,0,0,0-1.37,3.23,4.39,4.39,0,0,0,.65,2.29,5.32,5.32,0,0,0,1.78,1.78,32.7,32.7,0,0,0,3.82,1.89l1.81.79c2.89,1.25,4.83,2.57,5.8,4a7.61,7.61,0,0,1,1.45,4.46,8.67,8.67,0,0,1-1.18,4.32,7.89,7.89,0,0,1-3.28,3.17,12.2,12.2,0,0,1-5.58,1.08,16.8,16.8,0,0,1-5.52-.79,6.41,6.41,0,0,1-3.37-2.61,7.24,7.24,0,0,1-1.16-4v-.18Z"/><path class="cls-2" d="M667.48,175.57V149H657.43v-3h23.78v3h-9.9v26.58Z"/><path class="cls-2" d="M693,175.57h-3.57L701.52,146h3.88l11.18,29.55h-4.15l-3.06-8.13h-13Zm4.51-11.07h10.73L703,150.78Z"/><path class="cls-2" d="M734.83,175.57V149H724.77v-3h23.78v3h-9.9v26.58Z"/><path class="cls-2" d="M759,175.57V146h16.71v3.25H762.82v9.33H774v2.94H762.82v10.79h13.89v3.24Z"/><path class="cls-2" d="M809.75,175.57h-3.57L818.29,146h3.88l11.18,29.55H829.2l-3.06-8.13h-13Zm4.51-11.07H825l-5.18-13.72Z"/><path class="cls-2" d="M864.88,174.22a20.76,20.76,0,0,1-9,2.25,13.09,13.09,0,0,1-7.19-1.77,12.53,12.53,0,0,1-4.38-5.08,19.2,19.2,0,0,1-1.63-8.49,21.51,21.51,0,0,1,1.55-9.07,12.27,12.27,0,0,1,4.37-5.08,11.94,11.94,0,0,1,6.69-1.84,13.47,13.47,0,0,1,4.82.83,7.59,7.59,0,0,1,3.45,2.54,5.63,5.63,0,0,1,1.28,3.37v.2h-3.55v-.2a2.88,2.88,0,0,0-.79-1.91,5.29,5.29,0,0,0-2.08-1.39,8.09,8.09,0,0,0-2.92-.5,7.41,7.41,0,0,0-6.57,3.38q-2.26,3.38-2.26,9.29T849,170.1a7.47,7.47,0,0,0,6.54,3.43,17.25,17.25,0,0,0,5.76-1.19V163.9h-6.66V161h10.21v13.26Z"/><path class="cls-2" d="M877.06,175.57V146h16.71v3.25H880.91v9.33h11.23v2.94H880.91v10.79H894.8v3.24Z"/><path class="cls-2" d="M910.07,175.57h-3.55V146h3.81l13.5,21,1.23,2.34L925,167V146h3.54v29.55h-3.77l-13.51-21.09L910,152.1l.07,2.38Z"/><path class="cls-2" d="M949,175.57V149H939v-3h23.77v3h-9.89v26.58Z"/><path class="cls-2" d="M972.42,168.93h3.85v.18a3.58,3.58,0,0,0,1.73,3.42,9.37,9.37,0,0,0,4.61,1,6.25,6.25,0,0,0,4.22-1.47,4.87,4.87,0,0,0,1.7-3.86,4,4,0,0,0-1.46-3.19,17.76,17.76,0,0,0-4.46-2.43l-1.54-.63a18.84,18.84,0,0,1-4.69-2.56,8.64,8.64,0,0,1-2.32-2.81,7.76,7.76,0,0,1-.76-3.44,7.59,7.59,0,0,1,2.37-5.66q2.37-2.31,7.41-2.31,4.63,0,6.52,1.71a5.27,5.27,0,0,1,1.89,4v.2h-3.86v-.2a2.27,2.27,0,0,0-.57-1.43,3.26,3.26,0,0,0-1.75-1,9.79,9.79,0,0,0-2.55-.31,5.57,5.57,0,0,0-4.2,1.42,4.51,4.51,0,0,0-1.36,3.23,4.39,4.39,0,0,0,.65,2.29,5.23,5.23,0,0,0,1.78,1.78,33.2,33.2,0,0,0,3.81,1.89l1.82.79q4.34,1.88,5.8,4a7.68,7.68,0,0,1,1.45,4.46,8.58,8.58,0,0,1-1.19,4.32,7.86,7.86,0,0,1-3.27,3.17,12.23,12.23,0,0,1-5.58,1.08,16.8,16.8,0,0,1-5.52-.79,6.43,6.43,0,0,1-3.38-2.61,7.23,7.23,0,0,1-1.15-4v-.18Z"/><polygon class="cls-1" points="176.46 12.28 176.46 40.16 156.22 27.89 156.22 0 176.46 12.28"/><polygon class="cls-2" points="47.88 72.51 47.88 133.77 74.42 149.09 100.93 164.4 127.47 149.09 146.59 138.04 180.55 157.73 144.48 178.57 100.93 203.71 57.39 178.57 13.85 153.43 13.85 86.92 0 94.91 0 60.89 95.2 4.85 95.4 45.06 47.88 72.51"/><polygon class="cls-1" points="106.67 4.85 201.87 60.89 201.87 94.91 188.02 86.92 188.02 147.93 153.99 128.28 153.99 72.51 106.47 45.06 106.67 4.85"/></g></g></svg>