<?xml version="1.0" encoding="UTF-8"?>
<svg width="250px" height="52px" viewBox="0 0 250 52" version="1.1" xmlns="http://www.w3.org/2000/svg" xmlns:xlink="http://www.w3.org/1999/xlink">
    <!-- Generator: Sketch 61.2 (89653) - https://sketch.com -->
    <title>vitalspace-logo-whitetext</title>
    <desc>Created with Sketch.</desc>
    <g id="Page-1" stroke="none" stroke-width="1" fill="none" fill-rule="evenodd">
        <g id="vitalspace-logo-whitetext" fill-rule="nonzero">
            <g id="vitalspace" transform="translate(60.631180, 10.487921)" fill="#FFFFFF">
                <polyline id="Fill-3" points="16.9146067 0.627808989 19.4848315 0.627808989 10.8516854 21.8196629 8.07022472 21.8196629 -3.99181312e-15 0.627808989 3.0005618 0.627808989 9.72219101 18.3921348 16.9146067 0.627808989"></polyline>
                <polygon id="Fill-4" points="24.2924157 21.8196629 27.0505618 21.8196629 27.0505618 0.627808989 24.2924157 0.627808989"></polygon>
                <polyline id="Fill-5" points="39.0676966 21.8196629 39.0676966 2.74438202 31.8581461 2.74438202 31.8581461 0.627808989 48.9261236 0.627808989 48.9261236 2.74438202 41.8258427 2.74438202 41.8258427 21.8196629 39.0676966 21.8196629"></polyline>
                <path d="M57.9224719,13.8727528 L65.644382,13.8727528 L61.919382,4.02808989 L57.9224719,13.8727528 Z M54.6960674,21.8196629 L52.1426966,21.8196629 L60.819382,0.627808989 L63.6092697,0.627808989 L71.627809,21.8196629 L68.6508427,21.8196629 L66.452809,15.9893258 L57.0890449,15.9893258 L54.6960674,21.8196629 L54.6960674,21.8196629 Z" id="Fill-6"></path>
                <polyline id="Fill-7" points="76.4283708 21.8196629 76.4283708 0.627808989 79.1865169 0.627808989 79.1865169 19.4845506 90.3011236 19.4845506 90.3011236 21.8196629 76.4283708 21.8196629"></polyline>
                <path d="M94.6033708,17.0679775 L97.361236,17.0679775 L97.361236,17.2044944 C97.361236,18.3789326 97.7755618,19.1957865 98.6039326,19.655618 C99.4323034,20.1151685 100.533989,20.3449438 101.908427,20.3449438 C103.109831,20.3449438 104.118258,19.9946629 104.932865,19.2929775 C105.747753,18.5912921 106.154775,17.666573 106.154775,16.5191011 C106.154775,15.5898876 105.804775,14.8292135 105.104775,14.2370787 C104.404494,13.6539326 103.341292,13.0710674 101.913764,12.4879213 L100.808989,12.0367978 C99.3089888,11.4174157 98.1879213,10.8050562 97.4474719,10.1991573 C96.7064607,9.59353933 96.1542135,8.92191011 95.7904494,8.18398876 C95.4266854,7.44634831 95.2452247,6.62191011 95.2452247,5.71095506 C95.2452247,4.10786517 95.811236,2.75533708 96.9432584,1.65308989 C98.075,0.551123596 99.8460674,0 102.25618,0 C104.465449,0 106.020225,0.409550562 106.921067,1.22865169 C107.821348,2.04803371 108.271348,3.00365169 108.271348,4.09606742 L108.271348,4.23258427 L105.513483,4.23258427 L105.513483,4.09606742 C105.513483,3.7502809 105.374438,3.40898876 105.097472,3.07191011 C104.820506,2.73539326 104.404494,2.49185393 103.850562,2.34157303 C103.296348,2.19157303 102.68736,2.11629213 102.024157,2.11629213 C100.669944,2.11629213 99.6682584,2.45561798 99.0188202,3.13426966 C98.3691011,3.81292135 98.044382,4.58511236 98.044382,5.4505618 C98.044382,6.03342697 98.1985955,6.58258427 98.5078652,7.09719101 C98.8168539,7.61179775 99.2418539,8.03764045 99.7828652,8.3747191 C100.323876,8.71179775 101.235112,9.16292135 102.517416,9.72752809 L103.81264,10.2879213 C105.885955,11.1884831 107.272191,12.1348315 107.972472,13.1264045 C108.663202,14.1185393 109.008708,15.1873596 109.008708,16.3337079 C109.008708,17.3983146 108.726685,18.4286517 108.162079,19.425 C107.597753,20.4213483 106.814607,21.1764045 105.813483,21.6904494 C104.81236,22.2044944 103.478371,22.4615169 101.812921,22.4615169 C100.228933,22.4615169 98.9067416,22.2727528 97.8463483,21.8960674 C96.7856742,21.519382 95.9800562,20.8997191 95.4294944,20.0370787 C94.8786517,19.1747191 94.6033708,18.2300562 94.6033708,17.2039326 L94.6033708,17.0679775" id="Fill-8"></path>
                <path d="M117.202528,11.3331461 L119.059551,11.3331461 C121.498876,11.3331461 123.105899,10.863764 123.879775,9.9244382 C124.653371,8.98539326 125.040169,7.85926966 125.040169,6.54634831 C125.040169,5.40674157 124.728652,4.48820225 124.104775,3.79073034 C123.481461,3.09325843 122.245506,2.74438202 120.397753,2.74438202 L117.202528,2.74438202 L117.202528,11.3331461 Z M117.202528,21.8196629 L114.444663,21.8196629 L114.444663,0.627808989 L120.343539,0.627808989 C122.591573,0.627808989 124.177809,0.858146067 125.101685,1.31741573 C126.025562,1.77724719 126.72191,2.4508427 127.19073,3.33848315 C127.65927,4.2258427 127.894101,5.25674157 127.894101,6.43089888 C127.894101,8.41573034 127.218258,10.0817416 125.866573,11.4283708 C124.514607,12.7758427 122.500562,13.4494382 119.824438,13.4494382 L117.202528,13.4494382 L117.202528,21.8196629 L117.202528,21.8196629 Z" id="Fill-9"></path>
                <path d="M137.341011,13.8727528 L145.062921,13.8727528 L141.337921,4.02808989 L137.341011,13.8727528 Z M134.114607,21.8196629 L131.561236,21.8196629 L140.238483,0.627808989 L143.02809,0.627808989 L151.046348,21.8196629 L148.069663,21.8196629 L145.871067,15.9893258 L136.507584,15.9893258 L134.114607,21.8196629 L134.114607,21.8196629 Z" id="Fill-10"></path>
                <path d="M168.463764,17.2727528 L171.003371,17.2727528 L171.003371,17.4089888 C171.003371,18.244382 170.714326,19.0932584 170.135955,19.955618 C169.557865,20.8179775 168.772753,21.4514045 167.780618,21.855618 C166.788202,22.2592697 165.623596,22.4615169 164.285393,22.4615169 C161.590449,22.4615169 159.387921,21.5244382 157.676685,19.6502809 C155.964888,17.7761236 155.109551,14.9699438 155.109551,11.230618 C155.109551,7.50983146 155.960393,4.70786517 157.662921,2.8247191 C159.364888,0.941853933 161.576966,0 164.299157,0 C165.627809,0 166.788202,0.201966292 167.780618,0.605898876 C168.772753,1.01011236 169.557865,1.6502809 170.135955,2.5261236 C170.714326,3.40224719 171.003371,4.24438202 171.003371,5.05224719 L171.003371,5.18876404 L168.463764,5.18876404 L168.463764,5.05196629 C168.463764,4.53314607 168.301404,4.03455056 167.978371,3.55674157 C167.654494,3.07893258 167.189888,2.71966292 166.583708,2.47808989 C165.977528,2.23707865 165.250562,2.11629213 164.402809,2.11629213 C162.233427,2.11629213 160.617697,2.97191011 159.555618,4.68342697 C158.494101,6.39494382 157.962921,8.5747191 157.962921,11.2238764 C157.962921,13.9 158.496348,16.0893258 159.562921,17.791573 C160.629494,19.4938202 162.237921,20.3449438 164.389045,20.3449438 C165.866011,20.3449438 166.914045,20.041573 167.533989,19.4339888 C168.153371,18.8269663 168.463764,18.1519663 168.463764,17.4087079 L168.463764,17.2727528" id="Fill-11"></path>
                <polyline id="Fill-12" points="176.438764 21.8196629 176.438764 0.627808989 188.413764 0.627808989 188.413764 2.96292135 179.197191 2.96292135 179.197191 9.63988764 187.253371 9.63988764 187.253371 11.7561798 179.197191 11.7561798 179.197191 19.4845506 189.151124 19.4845506 189.151124 21.8196629 176.438764 21.8196629"></polyline>
            </g>
            <g id="sub-text" transform="translate(59.662921, 36.552247)" fill="#FFFFFF">
                <polygon id="Fill-13" points="1 7.65224719 1.96910112 7.65224719 1.96910112 0.222191011 1 0.222191011"></polygon>
                <polyline id="Fill-14" points="6.03174157 7.65224719 5.13960674 7.65224719 5.13960674 0.222191011 6.09691011 0.222191011 9.49016854 5.50337079 9.8005618 6.08960674 9.78117978 5.50730337 9.78117978 0.222191011 10.6733146 0.222191011 10.6733146 7.65224719 9.7244382 7.65224719 6.32640449 2.34775281 6.01264045 1.7502809 6.03174157 2.34775281 6.03174157 7.65224719"></polyline>
                <path d="M14.8202247,6.83651685 L15.9603933,6.83651685 C16.6390449,6.83651685 17.1508427,6.73679775 17.4966292,6.53735955 C17.8421348,6.33792135 18.1067416,6.0252809 18.2904494,5.59859551 C18.4741573,5.17191011 18.5660112,4.63651685 18.5660112,3.99297753 C18.5660112,3.34634831 18.4823034,2.79073034 18.3154494,2.3255618 C18.1483146,1.86067416 17.8932584,1.51825843 17.55,1.2988764 C17.2070225,1.07865169 16.6696629,0.968820225 15.9376404,0.968820225 L14.8202247,0.968820225 L14.8202247,6.83651685 Z M13.8514045,7.65224719 L13.8514045,0.222191011 L15.9042135,0.222191011 C16.9025281,0.222191011 17.633427,0.35758427 18.0969101,0.628089888 C18.5603933,0.898876404 18.922191,1.31320225 19.1825843,1.87106742 C19.4429775,2.42865169 19.5733146,3.10730337 19.5733146,3.90646067 C19.5733146,4.65730337 19.455618,5.30758427 19.2207865,5.85786517 C18.9859551,6.40786517 18.630618,6.84466292 18.1542135,7.16769663 C17.677809,7.49044944 16.9727528,7.65224719 16.0382022,7.65224719 L13.8514045,7.65224719 L13.8514045,7.65224719 Z" id="Fill-15"></path>
                <polyline id="Fill-16" points="22.4867978 7.65224719 22.4867978 0.222191011 26.6882022 0.222191011 26.6882022 1.03792135 23.455618 1.03792135 23.455618 3.38595506 26.2783708 3.38595506 26.2783708 4.125 23.455618 4.125 23.455618 6.83651685 26.9483146 6.83651685 26.9483146 7.65224719 22.4867978 7.65224719"></polyline>
                <path d="M30.8657303,3.97921348 L31.5160112,3.97921348 C32.3699438,3.97921348 32.9328652,3.81432584 33.2042135,3.48455056 C33.4758427,3.15477528 33.6117978,2.75983146 33.6117978,2.2997191 C33.6117978,1.9011236 33.5025281,1.57949438 33.2845506,1.33539326 C33.066573,1.09101124 32.6339888,0.968820225 31.986236,0.968820225 L30.8657303,0.968820225 L30.8657303,3.97921348 Z M30.8657303,7.65224719 L29.8969101,7.65224719 L29.8969101,0.222191011 L31.9648876,0.222191011 C32.7536517,0.222191011 33.3098315,0.302808989 33.6325843,0.463483146 C33.955618,0.624438202 34.1994382,0.860674157 34.3643258,1.17219101 C34.5289326,1.48370787 34.611236,1.84494382 34.611236,2.25589888 C34.611236,2.95280899 34.3747191,3.53764045 33.9014045,4.00983146 C33.4283708,4.48230337 32.7224719,4.71853933 31.7839888,4.71853933 L30.8657303,4.71853933 L30.8657303,7.65224719 L30.8657303,7.65224719 Z" id="Fill-17"></path>
                <polyline id="Fill-18" points="37.3831461 7.65224719 37.3831461 0.222191011 41.5845506 0.222191011 41.5845506 1.03792135 38.3522472 1.03792135 38.3522472 3.38595506 41.1747191 3.38595506 41.1747191 4.125 38.3522472 4.125 38.3522472 6.83651685 41.8449438 6.83651685 41.8449438 7.65224719 37.3831461 7.65224719"></polyline>
                <polyline id="Fill-19" points="45.6856742 7.65224719 44.7932584 7.65224719 44.7932584 0.222191011 45.7505618 0.222191011 49.1438202 5.50337079 49.4542135 6.08960674 49.4348315 5.50730337 49.4348315 0.222191011 50.3272472 0.222191011 50.3272472 7.65224719 49.3783708 7.65224719 45.9800562 2.34775281 45.6662921 1.7502809 45.6856742 2.34775281 45.6856742 7.65224719"></polyline>
                <path d="M54.4741573,6.83651685 L55.6143258,6.83651685 C56.2926966,6.83651685 56.8047753,6.73679775 57.1502809,6.53735955 C57.4957865,6.33792135 57.7603933,6.0252809 57.944382,5.59859551 C58.127809,5.17191011 58.2196629,4.63651685 58.2196629,3.99297753 C58.2196629,3.34634831 58.136236,2.79073034 57.9691011,2.3255618 C57.8019663,1.86067416 57.5469101,1.51825843 57.2039326,1.2988764 C56.8606742,1.07865169 56.3233146,0.968820225 55.5912921,0.968820225 L54.4741573,0.968820225 L54.4741573,6.83651685 Z M53.5053371,7.65224719 L53.5053371,0.222191011 L55.5581461,0.222191011 C56.5561798,0.222191011 57.2870787,0.35758427 57.7505618,0.628089888 C58.2140449,0.898876404 58.5758427,1.31320225 58.836236,1.87106742 C59.0966292,2.42865169 59.2269663,3.10730337 59.2269663,3.90646067 C59.2269663,4.65730337 59.1095506,5.30758427 58.8747191,5.85786517 C58.6396067,6.40786517 58.2842697,6.84466292 57.8078652,7.16769663 C57.3317416,7.49044944 56.6266854,7.65224719 55.6918539,7.65224719 L53.5053371,7.65224719 L53.5053371,7.65224719 Z" id="Fill-20"></path>
                <polyline id="Fill-21" points="62.1407303 7.65224719 62.1407303 0.222191011 66.3421348 0.222191011 66.3421348 1.03792135 63.1095506 1.03792135 63.1095506 3.38595506 65.9320225 3.38595506 65.9320225 4.125 63.1095506 4.125 63.1095506 6.83651685 66.6025281 6.83651685 66.6025281 7.65224719 62.1407303 7.65224719"></polyline>
                <polyline id="Fill-22" points="70.4429775 7.65224719 69.5505618 7.65224719 69.5505618 0.222191011 70.5078652 0.222191011 73.9011236 5.50337079 74.2115169 6.08960674 74.1921348 5.50730337 74.1921348 0.222191011 75.0845506 0.222191011 75.0845506 7.65224719 74.1353933 7.65224719 70.7379213 2.34775281 70.4235955 1.7502809 70.4429775 2.34775281 70.4429775 7.65224719"></polyline>
                <polyline id="Fill-23" points="80.2345506 7.65224719 80.2345506 0.968820225 77.7070225 0.968820225 77.7070225 0.222191011 83.6856742 0.222191011 83.6856742 0.968820225 81.1960674 0.968820225 81.1960674 7.65224719 80.2345506 7.65224719"></polyline>
                <polyline id="Fill-24" points="91.3247191 7.65224719 91.3247191 0.222191011 95.5258427 0.222191011 95.5258427 1.03792135 92.2932584 1.03792135 92.2932584 3.38595506 95.1162921 3.38595506 95.1162921 4.125 92.2932584 4.125 92.2932584 6.83651685 95.7859551 6.83651685 95.7859551 7.65224719 91.3247191 7.65224719"></polyline>
                <path d="M98.5505618,5.98230337 L99.5196629,5.98230337 L99.5196629,6.02837079 C99.5196629,6.43932584 99.6643258,6.7261236 99.9542135,6.88792135 C100.244382,7.0502809 100.630337,7.13117978 101.11264,7.13117978 C101.533989,7.13117978 101.88736,7.00814607 102.173876,6.76179775 C102.45927,6.51544944 102.602809,6.19157303 102.602809,5.79073034 C102.602809,5.46404494 102.480056,5.19719101 102.234831,4.99044944 C101.987079,4.78595506 101.613202,4.58202247 101.11264,4.37752809 L100.726124,4.22050562 C100.199719,4.00365169 99.8067416,3.78848315 99.5460674,3.5752809 C99.2856742,3.36207865 99.0918539,3.12640449 98.9640449,2.86882022 C98.8367978,2.61067416 98.7724719,2.32247191 98.7724719,2.00308989 C98.7724719,1.44157303 98.9710674,0.967134831 99.3685393,0.580337079 C99.7651685,0.193539326 100.386236,0 101.231461,0 C102.007584,0 102.554213,0.143820225 102.870506,0.430898876 C103.18736,0.717977528 103.345506,1.05308989 103.345506,1.43623596 L103.345506,1.48595506 L102.376404,1.48595506 L102.376404,1.43623596 C102.376404,1.31544944 102.32809,1.19550562 102.231461,1.0761236 C102.133989,0.956741573 101.987921,0.870786517 101.792697,0.818258427 C101.59691,0.765449438 101.383427,0.739325843 101.151124,0.739325843 C100.676405,0.739325843 100.324719,0.857865169 100.095787,1.09550562 C99.8674157,1.33342697 99.7530899,1.60393258 99.7530899,1.90786517 C99.7530899,2.11235955 99.8073034,2.30477528 99.9160112,2.48455056 C100.024438,2.66460674 100.174157,2.81432584 100.364045,2.93286517 C100.554494,3.05168539 100.873876,3.20955056 101.323315,3.40617978 L101.779494,3.60533708 C102.506742,3.91966292 102.992978,4.25196629 103.238483,4.60168539 C103.480899,4.9491573 103.602247,5.32359551 103.602247,5.7247191 C103.602247,6.1 103.50309,6.46235955 103.305056,6.81095506 C103.107584,7.15955056 102.832584,7.4247191 102.481461,7.60589888 C102.13118,7.78735955 101.662921,7.87808989 101.078371,7.87808989 C100.524719,7.87808989 100.061798,7.81179775 99.6904494,7.67865169 C99.3188202,7.54606742 99.0356742,7.32808989 98.841573,7.0238764 C98.6477528,6.72022472 98.5505618,6.38820225 98.5505618,6.02837079 L98.5505618,5.98230337" id="Fill-25"></path>
                <polyline id="Fill-26" points="108.411236 7.65224719 108.411236 0.968820225 105.883989 0.968820225 105.883989 0.222191011 111.86236 0.222191011 111.86236 0.968820225 109.372753 0.968820225 109.372753 7.65224719 108.411236 7.65224719"></polyline>
                <path d="M115.955337,4.86797753 L118.655337,4.86797753 L117.353371,1.41713483 L115.955337,4.86797753 Z M114.821629,7.65224719 L113.925843,7.65224719 L116.970225,0.222191011 L117.946629,0.222191011 L120.757865,7.65224719 L119.71236,7.65224719 L118.942978,5.60702247 L115.664326,5.60702247 L114.821629,7.65224719 L114.821629,7.65224719 Z" id="Fill-27"></path>
                <polyline id="Fill-28" points="125.345506 7.65224719 125.345506 0.968820225 122.817697 0.968820225 122.817697 0.222191011 128.795787 0.222191011 128.795787 0.968820225 126.306461 0.968820225 126.306461 7.65224719 125.345506 7.65224719"></polyline>
                <polyline id="Fill-29" points="131.414326 7.65224719 131.414326 0.222191011 135.616011 0.222191011 135.616011 1.03792135 132.383989 1.03792135 132.383989 3.38595506 135.20618 3.38595506 135.20618 4.125 132.383989 4.125 132.383989 6.83651685 135.876685 6.83651685 135.876685 7.65224719 131.414326 7.65224719"></polyline>
                <path d="M145.319101,4.86797753 L148.019382,4.86797753 L146.716854,1.41713483 L145.319101,4.86797753 Z M144.185393,7.65224719 L143.289326,7.65224719 L146.333989,0.222191011 L147.310393,0.222191011 L150.121629,7.65224719 L149.076124,7.65224719 L148.306742,5.60702247 L145.02809,5.60702247 L144.185393,7.65224719 L144.185393,7.65224719 Z" id="Fill-30"></path>
                <path d="M158.048596,7.31179775 C157.26236,7.68932584 156.511517,7.87808989 155.79691,7.87808989 C155.051404,7.87808989 154.448876,7.72977528 153.989326,7.43398876 C153.529494,7.13792135 153.16264,6.71207865 152.887921,6.15646067 C152.613483,5.60140449 152.476124,4.88960674 152.476124,4.02134831 C152.476124,3.04325843 152.606461,2.28314607 152.866573,1.74073034 C153.127247,1.19831461 153.494101,0.772191011 153.966573,0.463483146 C154.438483,0.154494382 154.999157,0 155.647472,0 C156.091573,0 156.495787,0.0699438202 156.859551,0.209831461 C157.223315,0.349438202 157.512921,0.562078652 157.726966,0.84747191 C157.941854,1.13286517 158.048596,1.41573034 158.048596,1.69662921 L158.048596,1.74634831 L157.15618,1.74634831 L157.15618,1.69662921 C157.15618,1.5255618 157.090169,1.36544944 156.957584,1.21629213 C156.824157,1.06685393 156.650281,0.95 156.434831,0.865730337 C156.21882,0.781460674 155.974438,0.739325843 155.701404,0.739325843 C154.978652,0.739325843 154.427809,1.02247191 154.048596,1.58848315 C153.669382,2.15477528 153.479494,2.93398876 153.479494,3.9258427 C153.479494,4.91741573 153.674438,5.7008427 154.064045,6.2761236 C154.45309,6.85140449 155.001685,7.13904494 155.708708,7.13904494 C156.125,7.13904494 156.607584,7.03932584 157.15618,6.83988764 L157.15618,4.71853933 L155.482865,4.71853933 L155.482865,3.97921348 L158.048596,3.97921348 L158.048596,7.31179775" id="Fill-31"></path>
                <polyline id="Fill-32" points="161.111798 7.65224719 161.111798 0.222191011 165.312921 0.222191011 165.312921 1.03792135 162.080618 1.03792135 162.080618 3.38595506 164.90309 3.38595506 164.90309 4.125 162.080618 4.125 162.080618 6.83651685 165.573596 6.83651685 165.573596 7.65224719 161.111798 7.65224719"></polyline>
                <polyline id="Fill-33" points="169.414045 7.65224719 168.521629 7.65224719 168.521629 0.222191011 169.479494 0.222191011 172.872753 5.50337079 173.182584 6.08960674 173.163764 5.50730337 173.163764 0.222191011 174.055618 0.222191011 174.055618 7.65224719 173.106742 7.65224719 169.708708 2.34775281 169.394663 1.7502809 169.414045 2.34775281 169.414045 7.65224719"></polyline>
                <polyline id="Fill-34" points="179.20618 7.65224719 179.20618 0.968820225 176.678371 0.968820225 176.678371 0.222191011 182.656461 0.222191011 182.656461 0.968820225 180.167135 0.968820225 180.167135 7.65224719 179.20618 7.65224719"></polyline>
                <path d="M185.091573,5.98230337 L186.060674,5.98230337 L186.060674,6.02837079 C186.060674,6.43932584 186.205337,6.7261236 186.495225,6.88792135 C186.785112,7.0502809 187.171067,7.13117978 187.653652,7.13117978 C188.075,7.13117978 188.428371,7.00814607 188.714888,6.76179775 C189.000281,6.51544944 189.14382,6.19157303 189.14382,5.79073034 C189.14382,5.46404494 189.020787,5.19719101 188.775843,4.99044944 C188.52809,4.78595506 188.154213,4.58202247 187.653652,4.37752809 L187.267135,4.22050562 C186.74073,4.00365169 186.347753,3.78848315 186.087079,3.5752809 C185.826685,3.36207865 185.632865,3.12640449 185.505056,2.86882022 C185.377809,2.61067416 185.313483,2.32247191 185.313483,2.00308989 C185.313483,1.44157303 185.512079,0.967134831 185.909551,0.580337079 C186.30618,0.193539326 186.927247,0 187.772472,0 C188.548596,0 189.095225,0.143820225 189.411517,0.430898876 C189.728371,0.717977528 189.886517,1.05308989 189.886517,1.43623596 L189.886517,1.48595506 L188.917416,1.48595506 L188.917416,1.43623596 C188.917416,1.31544944 188.86882,1.19550562 188.772472,1.0761236 C188.675,0.956741573 188.528933,0.870786517 188.333708,0.818258427 C188.137921,0.765449438 187.924157,0.739325843 187.692135,0.739325843 C187.217416,0.739325843 186.86573,0.857865169 186.636798,1.09550562 C186.408427,1.33342697 186.294101,1.60393258 186.294101,1.90786517 C186.294101,2.11235955 186.348315,2.30477528 186.457022,2.48455056 C186.565449,2.66460674 186.714888,2.81432584 186.905056,2.93286517 C187.095506,3.05168539 187.414888,3.20955056 187.864326,3.40617978 L188.320225,3.60533708 C189.047753,3.91966292 189.533989,4.25196629 189.779494,4.60168539 C190.02191,4.9491573 190.143258,5.32359551 190.143258,5.7247191 C190.143258,6.1 190.044101,6.46235955 189.846067,6.81095506 C189.648596,7.15955056 189.373596,7.4247191 189.022472,7.60589888 C188.672191,7.78735955 188.203933,7.87808989 187.619382,7.87808989 C187.06573,7.87808989 186.602809,7.81179775 186.23118,7.67865169 C185.859831,7.54606742 185.576404,7.32808989 185.382584,7.0238764 C185.188764,6.72022472 185.091573,6.38820225 185.091573,6.02837079 L185.091573,5.98230337" id="Fill-35"></path>
            </g>
            <g id="white-shape" transform="translate(26.999719, 0.054775)" fill="#464E53">
                <polyline id="Fill-36" points="17.5991573 3.08707865 17.5991573 10.0994382 12.5089888 7.01235955 12.5089888 0 17.5991573 3.08707865"></polyline>
                <polyline id="Fill-38" points="0.0485955056 1.21966292 23.988764 15.3126404 23.988764 23.8657303 20.5070225 21.8567416 20.5070225 37.2 11.9483146 32.258427 11.9483146 18.2328652 0 11.3317416 0.0485955056 1.21966292"></polyline>
            </g>
            <polyline id="orange-shape" fill="#FFFFFF" points="12.2657303 18.2876404 12.2657303 33.6935393 18.9396067 37.5446629 25.6067416 41.3963483 32.2803371 37.5446629 37.086236 34.7660112 45.6272472 39.719382 36.5573034 44.9578652 25.6067416 51.2800562 3.70702247 38.6356742 3.70702247 21.9115169 0.225280899 23.9205056 0.225280899 15.3674157 24.1654494 1.2744382 24.2146067 11.3865169 12.2657303 18.2876404"></polyline>
        </g>
    </g>
</svg>