<?xml version="1.0" encoding="UTF-8"?>
<svg width="890px" height="183px" viewBox="0 0 890 183" version="1.1" xmlns="http://www.w3.org/2000/svg" xmlns:xlink="http://www.w3.org/1999/xlink">
    <!-- Generator: Sketch 41.2 (35397) - http://www.bohemiancoding.com/sketch -->
    <title>Group</title>
    <desc>Created with Sketch.</desc>
    <defs></defs>
    <g id="Page-1" stroke="none" stroke-width="1" fill="none" fill-rule="evenodd">
        <g id="vs-logo-orange-bg-horizontal" transform="translate(-44.000000, -56.000000)">
            <g id="Group" transform="translate(44.000000, 56.000000)">
                <polyline id="Fill-3" fill="#FFFFFF" points="276.063 39.572 285.213 39.572 254.479 115.015 244.577 115.015 215.847 39.572 226.529 39.572 250.458 102.813 276.063 39.572"></polyline>
                <polygon id="Fill-4" fill="#FFFFFF" points="302.328 115.015 312.147 115.015 312.147 39.572 302.328 39.572"></polygon>
                <polyline id="Fill-5" fill="#FFFFFF" points="354.928 115.015 354.928 47.107 329.262 47.107 329.262 39.572 390.024 39.572 390.024 47.107 364.747 47.107 364.747 115.015 354.928 115.015"></polyline>
                <path d="M422.051,86.724 L449.541,86.724 L436.28,51.677 L422.051,86.724 Z M410.565,115.015 L401.475,115.015 L432.364,39.572 L442.296,39.572 L470.842,115.015 L460.244,115.015 L452.419,94.259 L419.084,94.259 L410.565,115.015 L410.565,115.015 Z" id="Fill-6" fill="#FFFFFF"></path>
                <polyline id="Fill-7" fill="#FFFFFF" points="487.932 115.015 487.932 39.572 497.751 39.572 497.751 106.702 537.319 106.702 537.319 115.015 487.932 115.015"></polyline>
                <path d="M552.635,98.099 L562.453,98.099 L562.453,98.585 C562.453,102.766 563.928,105.674 566.877,107.311 C569.826,108.947 573.748,109.765 578.641,109.765 C582.918,109.765 586.508,108.518 589.408,106.02 C592.309,103.522 593.758,100.23 593.758,96.145 C593.758,92.837 592.512,90.129 590.02,88.021 C587.527,85.945 583.742,83.87 578.66,81.794 L574.727,80.188 C569.387,77.983 565.396,75.803 562.76,73.646 C560.122,71.49 558.156,69.099 556.861,66.472 C555.566,63.846 554.92,60.911 554.92,57.668 C554.92,51.961 556.935,47.146 560.965,43.222 C564.994,39.299 571.299,37.337 579.879,37.337 C587.744,37.337 593.279,38.795 596.486,41.711 C599.691,44.628 601.293,48.03 601.293,51.919 L601.293,52.405 L591.475,52.405 L591.475,51.919 C591.475,50.688 590.98,49.473 589.994,48.273 C589.008,47.075 587.527,46.208 585.555,45.673 C583.582,45.139 581.414,44.871 579.053,44.871 C574.232,44.871 570.666,46.079 568.354,48.495 C566.041,50.911 564.885,53.66 564.885,56.741 C564.885,58.816 565.434,60.771 566.535,62.603 C567.635,64.435 569.148,65.951 571.074,67.151 C573,68.351 576.244,69.957 580.809,71.967 L585.42,73.962 C592.801,77.168 597.736,80.537 600.229,84.067 C602.688,87.599 603.918,91.404 603.918,95.485 C603.918,99.275 602.914,102.943 600.904,106.49 C598.895,110.037 596.107,112.725 592.543,114.555 C588.979,116.385 584.23,117.3 578.301,117.3 C572.662,117.3 567.955,116.628 564.18,115.287 C560.404,113.946 557.536,111.74 555.576,108.669 C553.615,105.599 552.635,102.236 552.635,98.583 L552.635,98.099" id="Fill-8" fill="#FFFFFF"></path>
                <path d="M633.088,77.683 L639.699,77.683 C648.383,77.683 654.104,76.012 656.859,72.668 C659.613,69.325 660.99,65.316 660.99,60.642 C660.99,56.585 659.881,53.315 657.66,50.832 C655.441,48.349 651.041,47.107 644.463,47.107 L633.088,47.107 L633.088,77.683 Z M633.088,115.015 L623.27,115.015 L623.27,39.572 L644.27,39.572 C652.273,39.572 657.92,40.392 661.209,42.027 C664.498,43.664 666.977,46.062 668.646,49.222 C670.314,52.381 671.15,56.051 671.15,60.231 C671.15,67.297 668.744,73.228 663.932,78.022 C659.119,82.819 651.949,85.217 642.422,85.217 L633.088,85.217 L633.088,115.015 L633.088,115.015 Z" id="Fill-9" fill="#FFFFFF"></path>
                <path d="M704.781,86.724 L732.271,86.724 L719.01,51.677 L704.781,86.724 Z M693.295,115.015 L684.205,115.015 L715.096,39.572 L725.027,39.572 L753.572,115.015 L742.975,115.015 L735.148,94.259 L701.814,94.259 L693.295,115.015 L693.295,115.015 Z" id="Fill-10" fill="#FFFFFF"></path>
                <path d="M815.578,98.828 L824.619,98.828 L824.619,99.313 C824.619,102.287 823.59,105.309 821.531,108.379 C819.473,111.449 816.678,113.704 813.146,115.143 C809.613,116.58 805.467,117.3 800.703,117.3 C791.109,117.3 783.268,113.964 777.176,107.292 C771.082,100.62 768.037,90.63 768.037,77.318 C768.037,64.072 771.066,54.097 777.127,47.393 C783.186,40.69 791.061,37.337 800.752,37.337 C805.482,37.337 809.613,38.056 813.146,39.494 C816.678,40.933 819.473,43.212 821.531,46.33 C823.59,49.449 824.619,52.447 824.619,55.323 L824.619,55.809 L815.578,55.809 L815.578,55.322 C815.578,53.475 815,51.7 813.85,49.999 C812.697,48.298 811.043,47.019 808.885,46.159 C806.727,45.301 804.139,44.871 801.121,44.871 C793.398,44.871 787.646,47.917 783.865,54.01 C780.086,60.103 778.195,67.863 778.195,77.294 C778.195,86.821 780.094,94.615 783.891,100.675 C787.688,106.735 793.414,109.765 801.072,109.765 C806.33,109.765 810.061,108.685 812.268,106.522 C814.473,104.361 815.578,101.958 815.578,99.312 L815.578,98.828" id="Fill-11" fill="#FFFFFF"></path>
                <polyline id="Fill-12" fill="#FFFFFF" points="843.969 115.015 843.969 39.572 886.6 39.572 886.6 47.885 853.789 47.885 853.789 71.655 882.469 71.655 882.469 79.189 853.789 79.189 853.789 106.702 889.225 106.702 889.225 115.015 843.969 115.015"></polyline>
                <polygon id="Fill-13" fill="#FFFFFF" points="215.96 157.368 219.41 157.368 219.41 130.917 215.96 130.917"></polygon>
                <polyline id="Fill-14" fill="#FFFFFF" points="233.873 157.368 230.697 157.368 230.697 130.917 234.105 130.917 246.185 149.718 247.29 151.805 247.221 149.732 247.221 130.917 250.397 130.917 250.397 157.368 247.019 157.368 234.922 138.484 233.805 136.357 233.873 138.484 233.873 157.368"></polyline>
                <path d="M265.16,154.464 L269.219,154.464 C271.635,154.464 273.457,154.109 274.688,153.399 C275.918,152.689 276.86,151.576 277.514,150.057 C278.168,148.538 278.495,146.632 278.495,144.341 C278.495,142.039 278.197,140.061 277.603,138.405 C277.008,136.75 276.1,135.531 274.878,134.75 C273.657,133.966 271.744,133.575 269.138,133.575 L265.16,133.575 L265.16,154.464 Z M261.711,157.368 L261.711,130.917 L269.019,130.917 C272.573,130.917 275.175,131.399 276.825,132.362 C278.475,133.326 279.763,134.801 280.69,136.787 C281.617,138.772 282.081,141.188 282.081,144.033 C282.081,146.706 281.662,149.021 280.826,150.98 C279.99,152.938 278.725,154.493 277.029,155.643 C275.333,156.792 272.823,157.368 269.496,157.368 L261.711,157.368 L261.711,157.368 Z" id="Fill-15" fill="#FFFFFF"></path>
                <polyline id="Fill-16" fill="#FFFFFF" points="292.453 157.368 292.453 130.917 307.41 130.917 307.41 133.821 295.902 133.821 295.902 142.18 305.951 142.18 305.951 144.811 295.902 144.811 295.902 154.464 308.336 154.464 308.336 157.368 292.453 157.368"></polyline>
                <path d="M322.282,144.292 L324.597,144.292 C327.637,144.292 329.641,143.705 330.607,142.531 C331.574,141.357 332.058,139.951 332.058,138.313 C332.058,136.894 331.669,135.749 330.893,134.88 C330.117,134.01 328.577,133.575 326.271,133.575 L322.282,133.575 L322.282,144.292 Z M322.282,157.368 L318.833,157.368 L318.833,130.917 L326.195,130.917 C329.003,130.917 330.983,131.204 332.132,131.776 C333.282,132.349 334.15,133.19 334.737,134.299 C335.323,135.408 335.616,136.694 335.616,138.157 C335.616,140.638 334.774,142.72 333.089,144.401 C331.405,146.083 328.892,146.924 325.551,146.924 L322.282,146.924 L322.282,157.368 L322.282,157.368 Z" id="Fill-17" fill="#FFFFFF"></path>
                <polyline id="Fill-18" fill="#FFFFFF" points="345.484 157.368 345.484 130.917 360.441 130.917 360.441 133.821 348.934 133.821 348.934 142.18 358.982 142.18 358.982 144.811 348.934 144.811 348.934 154.464 361.368 154.464 361.368 157.368 345.484 157.368"></polyline>
                <polyline id="Fill-19" fill="#FFFFFF" points="375.041 157.368 371.864 157.368 371.864 130.917 375.272 130.917 387.352 149.718 388.457 151.805 388.388 149.732 388.388 130.917 391.565 130.917 391.565 157.368 388.187 157.368 376.089 138.484 374.972 136.357 375.041 138.484 375.041 157.368"></polyline>
                <path d="M406.328,154.464 L410.387,154.464 C412.802,154.464 414.625,154.109 415.855,153.399 C417.085,152.689 418.027,151.576 418.682,150.057 C419.335,148.538 419.662,146.632 419.662,144.341 C419.662,142.039 419.365,140.061 418.77,138.405 C418.175,136.75 417.267,135.531 416.046,134.75 C414.824,133.966 412.911,133.575 410.305,133.575 L406.328,133.575 L406.328,154.464 Z M402.879,157.368 L402.879,130.917 L410.187,130.917 C413.74,130.917 416.342,131.399 417.992,132.362 C419.642,133.326 420.93,134.801 421.857,136.787 C422.784,138.772 423.248,141.188 423.248,144.033 C423.248,146.706 422.83,149.021 421.994,150.98 C421.157,152.938 419.892,154.493 418.196,155.643 C416.501,156.792 413.991,157.368 410.663,157.368 L402.879,157.368 L402.879,157.368 Z" id="Fill-20" fill="#FFFFFF"></path>
                <polyline id="Fill-21" fill="#FFFFFF" points="433.621 157.368 433.621 130.917 448.578 130.917 448.578 133.821 437.07 133.821 437.07 142.18 447.118 142.18 447.118 144.811 437.07 144.811 437.07 154.464 449.505 154.464 449.505 157.368 433.621 157.368"></polyline>
                <polyline id="Fill-22" fill="#FFFFFF" points="463.177 157.368 460 157.368 460 130.917 463.408 130.917 475.488 149.718 476.593 151.805 476.524 149.732 476.524 130.917 479.701 130.917 479.701 157.368 476.322 157.368 464.227 138.484 463.108 136.357 463.177 138.484 463.177 157.368"></polyline>
                <polyline id="Fill-23" fill="#FFFFFF" points="498.035 157.368 498.035 133.575 489.037 133.575 489.037 130.917 510.321 130.917 510.321 133.575 501.458 133.575 501.458 157.368 498.035 157.368"></polyline>
                <polyline id="Fill-24" fill="#FFFFFF" points="537.516 157.368 537.516 130.917 552.472 130.917 552.472 133.821 540.964 133.821 540.964 142.18 551.014 142.18 551.014 144.811 540.964 144.811 540.964 154.464 553.398 154.464 553.398 157.368 537.516 157.368"></polyline>
                <path d="M563.24,151.423 L566.69,151.423 L566.69,151.587 C566.69,153.05 567.205,154.071 568.237,154.647 C569.27,155.225 570.644,155.513 572.361,155.513 C573.861,155.513 575.119,155.075 576.139,154.198 C577.155,153.321 577.666,152.168 577.666,150.741 C577.666,149.578 577.229,148.628 576.356,147.892 C575.474,147.164 574.143,146.438 572.361,145.71 L570.985,145.151 C569.111,144.379 567.712,143.613 566.784,142.854 C565.857,142.095 565.167,141.256 564.712,140.339 C564.259,139.42 564.03,138.394 564.03,137.257 C564.03,135.258 564.737,133.569 566.152,132.192 C567.564,130.815 569.775,130.126 572.784,130.126 C575.547,130.126 577.493,130.638 578.619,131.66 C579.747,132.682 580.31,133.875 580.31,135.239 L580.31,135.416 L576.86,135.416 L576.86,135.239 C576.86,134.809 576.688,134.382 576.344,133.957 C575.997,133.532 575.477,133.226 574.782,133.039 C574.085,132.851 573.325,132.758 572.498,132.758 C570.808,132.758 569.556,133.18 568.741,134.026 C567.928,134.873 567.521,135.836 567.521,136.918 C567.521,137.646 567.714,138.331 568.101,138.971 C568.487,139.612 569.02,140.145 569.696,140.567 C570.374,140.99 571.511,141.552 573.111,142.252 L574.735,142.961 C577.324,144.08 579.055,145.263 579.929,146.508 C580.792,147.745 581.224,149.078 581.224,150.506 C581.224,151.842 580.871,153.132 580.166,154.373 C579.463,155.614 578.484,156.558 577.234,157.203 C575.987,157.849 574.32,158.172 572.239,158.172 C570.268,158.172 568.62,157.936 567.298,157.462 C565.975,156.99 564.967,156.214 564.276,155.131 C563.586,154.05 563.24,152.868 563.24,151.587 L563.24,151.423" id="Fill-25" fill="#FFFFFF"></path>
                <polyline id="Fill-26" fill="#FFFFFF" points="598.344 157.368 598.344 133.575 589.347 133.575 589.347 130.917 610.63 130.917 610.63 133.575 601.767 133.575 601.767 157.368 598.344 157.368"></polyline>
                <path d="M625.201,147.456 L634.813,147.456 L630.178,135.171 L625.201,147.456 Z M621.165,157.368 L617.976,157.368 L628.814,130.917 L632.29,130.917 L642.298,157.368 L638.576,157.368 L635.837,150.087 L624.165,150.087 L621.165,157.368 L621.165,157.368 Z" id="Fill-27" fill="#FFFFFF"></path>
                <polyline id="Fill-28" fill="#FFFFFF" points="658.63 157.368 658.63 133.575 649.631 133.575 649.631 130.917 670.913 130.917 670.913 133.575 662.051 133.575 662.051 157.368 658.63 157.368"></polyline>
                <polyline id="Fill-29" fill="#FFFFFF" points="680.235 157.368 680.235 130.917 695.193 130.917 695.193 133.821 683.687 133.821 683.687 142.18 693.734 142.18 693.734 144.811 683.687 144.811 683.687 154.464 696.121 154.464 696.121 157.368 680.235 157.368"></polyline>
                <path d="M729.736,147.456 L739.349,147.456 L734.712,135.171 L729.736,147.456 Z M725.7,157.368 L722.51,157.368 L733.349,130.917 L736.825,130.917 L746.833,157.368 L743.111,157.368 L740.372,150.087 L728.7,150.087 L725.7,157.368 L725.7,157.368 Z" id="Fill-30" fill="#FFFFFF"></path>
                <path d="M775.053,156.156 C772.254,157.5 769.581,158.172 767.037,158.172 C764.383,158.172 762.238,157.644 760.602,156.591 C758.965,155.537 757.659,154.021 756.681,152.043 C755.704,150.067 755.215,147.533 755.215,144.442 C755.215,140.96 755.679,138.254 756.605,136.323 C757.533,134.392 758.839,132.875 760.521,131.776 C762.201,130.676 764.197,130.126 766.505,130.126 C768.086,130.126 769.525,130.375 770.82,130.873 C772.115,131.37 773.146,132.127 773.908,133.143 C774.673,134.159 775.053,135.166 775.053,136.166 L775.053,136.343 L771.876,136.343 L771.876,136.166 C771.876,135.557 771.641,134.987 771.169,134.456 C770.694,133.924 770.075,133.508 769.308,133.208 C768.539,132.908 767.669,132.758 766.697,132.758 C764.124,132.758 762.163,133.766 760.813,135.781 C759.463,137.797 758.787,140.571 758.787,144.102 C758.787,147.632 759.481,150.421 760.868,152.469 C762.253,154.517 764.206,155.541 766.723,155.541 C768.205,155.541 769.923,155.186 771.876,154.476 L771.876,146.924 L765.919,146.924 L765.919,144.292 L775.053,144.292 L775.053,156.156" id="Fill-31" fill="#FFFFFF"></path>
                <polyline id="Fill-32" fill="#FFFFFF" points="785.958 157.368 785.958 130.917 800.914 130.917 800.914 133.821 789.407 133.821 789.407 142.18 799.455 142.18 799.455 144.811 789.407 144.811 789.407 154.464 801.842 154.464 801.842 157.368 785.958 157.368"></polyline>
                <polyline id="Fill-33" fill="#FFFFFF" points="815.514 157.368 812.337 157.368 812.337 130.917 815.747 130.917 827.827 149.718 828.93 151.805 828.863 149.732 828.863 130.917 832.038 130.917 832.038 157.368 828.66 157.368 816.563 138.484 815.445 136.357 815.514 138.484 815.514 157.368"></polyline>
                <polyline id="Fill-34" fill="#FFFFFF" points="850.374 157.368 850.374 133.575 841.375 133.575 841.375 130.917 862.657 130.917 862.657 133.575 853.795 133.575 853.795 157.368 850.374 157.368"></polyline>
                <path d="M871.326,151.423 L874.776,151.423 L874.776,151.587 C874.776,153.05 875.291,154.071 876.323,154.647 C877.355,155.225 878.729,155.513 880.447,155.513 C881.947,155.513 883.205,155.075 884.225,154.198 C885.241,153.321 885.752,152.168 885.752,150.741 C885.752,149.578 885.314,148.628 884.442,147.892 C883.56,147.164 882.229,146.438 880.447,145.71 L879.071,145.151 C877.197,144.379 875.798,143.613 874.87,142.854 C873.943,142.095 873.253,141.256 872.798,140.339 C872.345,139.42 872.116,138.394 872.116,137.257 C872.116,135.258 872.823,133.569 874.238,132.192 C875.65,130.815 877.861,130.126 880.87,130.126 C883.633,130.126 885.579,130.638 886.705,131.66 C887.833,132.682 888.396,133.875 888.396,135.239 L888.396,135.416 L884.946,135.416 L884.946,135.239 C884.946,134.809 884.773,134.382 884.43,133.957 C884.083,133.532 883.563,133.226 882.868,133.039 C882.171,132.851 881.41,132.758 880.584,132.758 C878.894,132.758 877.642,133.18 876.827,134.026 C876.014,134.873 875.607,135.836 875.607,136.918 C875.607,137.646 875.8,138.331 876.187,138.971 C876.573,139.612 877.105,140.145 877.782,140.567 C878.46,140.99 879.597,141.552 881.197,142.252 L882.82,142.961 C885.41,144.08 887.141,145.263 888.015,146.508 C888.878,147.745 889.31,149.078 889.31,150.506 C889.31,151.842 888.957,153.132 888.252,154.373 C887.549,155.614 886.57,156.558 885.32,157.203 C884.073,157.849 882.406,158.172 880.325,158.172 C878.354,158.172 876.706,157.936 875.383,157.462 C874.061,156.99 873.052,156.214 872.362,155.131 C871.672,154.05 871.326,152.868 871.326,151.587 L871.326,151.423" id="Fill-35" fill="#FFFFFF"></path>
                <polyline id="Fill-36" fill="#FFFFFF" points="158.772 11.185 158.772 36.149 140.651 25.159 140.651 0.195 158.772 11.185"></polyline>
                <polyline id="Fill-37" fill="#454E52" points="43.666 65.104 43.666 119.949 67.425 133.659 91.16 147.371 114.918 133.659 132.027 123.767 162.433 141.401 130.144 160.05 91.16 182.557 13.197 137.543 13.197 78.005 0.802 85.157 0.802 54.708 86.029 4.537 86.204 40.536 43.666 65.104"></polyline>
                <polyline id="Fill-38" fill="#FFFFFF" points="96.292 4.537 181.519 54.708 181.519 85.157 169.124 78.005 169.124 132.627 138.655 115.035 138.655 65.104 96.119 40.536 96.292 4.537"></polyline>
            </g>
        </g>
    </g>
</svg>