<?xml version="1.0" encoding="UTF-8"?>
<svg width="300px" height="62px" viewBox="0 0 300 62" version="1.1" xmlns="http://www.w3.org/2000/svg" xmlns:xlink="http://www.w3.org/1999/xlink">
    <!-- Generator: Sketch 61.2 (89653) - https://sketch.com -->
    <title>vitalspace-logo-darktext</title>
    <desc>Created with Sketch.</desc>
    <g id="Page-1" stroke="none" stroke-width="1" fill="none" fill-rule="evenodd">
        <g id="vitalspace-logo-darktext" fill-rule="nonzero">
            <g id="vitalspace" transform="translate(72.757416, 12.585506)" fill="#464E53">
                <polyline id="Fill-3" points="20.2975281 0.753370787 23.3817978 0.753370787 13.0220225 26.1835955 9.68426966 26.1835955 -4.79017574e-15 0.753370787 3.60067416 0.753370787 11.6666292 22.0705618 20.2975281 0.753370787"></polyline>
                <polygon id="Fill-4" points="29.1508989 26.1835955 32.4606742 26.1835955 32.4606742 0.753370787 29.1508989 0.753370787"></polygon>
                <polyline id="Fill-5" points="46.881236 26.1835955 46.881236 3.29325843 38.2297753 3.29325843 38.2297753 0.753370787 58.7113483 0.753370787 58.7113483 3.29325843 50.1910112 3.29325843 50.1910112 26.1835955 46.881236 26.1835955"></polyline>
                <path d="M69.5069663,16.6473034 L78.7732584,16.6473034 L74.3032584,4.83370787 L69.5069663,16.6473034 Z M65.6352809,26.1835955 L62.571236,26.1835955 L72.9832584,0.753370787 L76.3311236,0.753370787 L85.9533708,26.1835955 L82.3810112,26.1835955 L79.7433708,19.187191 L68.5068539,19.187191 L65.6352809,26.1835955 L65.6352809,26.1835955 Z" id="Fill-6"></path>
                <polyline id="Fill-7" points="91.7140449 26.1835955 91.7140449 0.753370787 95.0238202 0.753370787 95.0238202 23.3814607 108.361348 23.3814607 108.361348 26.1835955 91.7140449 26.1835955"></polyline>
                <path d="M113.524045,20.481573 L116.833483,20.481573 L116.833483,20.6453933 C116.833483,22.0547191 117.330674,23.0349438 118.324719,23.5867416 C119.318764,24.1382022 120.640787,24.4139326 122.290112,24.4139326 C123.731798,24.4139326 124.94191,23.9935955 125.919438,23.151573 C126.897303,22.3095506 127.38573,21.1998876 127.38573,19.8229213 C127.38573,18.7078652 126.96573,17.7950562 126.12573,17.0844944 C125.285393,16.3847191 124.009551,15.6852809 122.296517,14.9855056 L120.970787,14.4441573 C119.170787,13.7008989 117.825506,12.9660674 116.936966,12.2389888 C116.047753,11.5122472 115.385056,10.7062921 114.948539,9.82078652 C114.512022,8.93561798 114.29427,7.94629213 114.29427,6.85314607 C114.29427,4.9294382 114.973483,3.30640449 116.33191,1.98370787 C117.69,0.661348315 119.815281,0 122.707416,0 C125.358539,0 127.22427,0.491460674 128.305281,1.47438202 C129.385618,2.45764045 129.925618,3.60438202 129.925618,4.9152809 L129.925618,5.07910112 L126.61618,5.07910112 L126.61618,4.9152809 C126.61618,4.50033708 126.449326,4.09078652 126.116966,3.68629213 C125.784607,3.28247191 125.285393,2.99022472 124.620674,2.80988764 C123.955618,2.62988764 123.224831,2.53955056 122.428989,2.53955056 C120.803933,2.53955056 119.60191,2.94674157 118.822584,3.7611236 C118.042921,4.57550562 117.653258,5.50213483 117.653258,6.54067416 C117.653258,7.24011236 117.838315,7.89910112 118.209438,8.51662921 C118.580225,9.1341573 119.090225,9.64516854 119.739438,10.0496629 C120.388652,10.4541573 121.482135,10.9955056 123.020899,11.6730337 L124.575169,12.3455056 C127.063146,13.4261798 128.726629,14.5617978 129.566966,15.7516854 C130.395843,16.9422472 130.810449,18.2248315 130.810449,19.6004494 C130.810449,20.8779775 130.472022,22.114382 129.794494,23.31 C129.117303,24.505618 128.177528,25.4116854 126.97618,26.0285393 C125.774831,26.6453933 124.174045,26.9538202 122.175506,26.9538202 C120.274719,26.9538202 118.68809,26.7273034 117.415618,26.2752809 C116.142809,25.8232584 115.176067,25.0796629 114.515393,24.0444944 C113.854382,23.0096629 113.524045,21.8760674 113.524045,20.6447191 L113.524045,20.481573" id="Fill-8"></path>
                <path d="M140.643034,13.5997753 L142.871461,13.5997753 C145.798652,13.5997753 147.727079,13.0365169 148.65573,11.9093258 C149.584045,10.7824719 150.048202,9.4311236 150.048202,7.85561798 C150.048202,6.48808989 149.674382,5.3858427 148.92573,4.5488764 C148.177753,3.71191011 146.694607,3.29325843 144.477303,3.29325843 L140.643034,3.29325843 L140.643034,13.5997753 Z M140.643034,26.1835955 L137.333596,26.1835955 L137.333596,0.753370787 L144.412247,0.753370787 C147.109888,0.753370787 149.013371,1.02977528 150.122022,1.58089888 C151.230674,2.13269663 152.066292,2.94101124 152.628876,4.00617978 C153.191124,5.07101124 153.472921,6.30808989 153.472921,7.71707865 C153.472921,10.0988764 152.66191,12.0980899 151.039888,13.7140449 C149.417528,15.3310112 147.000674,16.1393258 143.789326,16.1393258 L140.643034,16.1393258 L140.643034,26.1835955 L140.643034,26.1835955 Z" id="Fill-9"></path>
                <path d="M164.809213,16.6473034 L174.075506,16.6473034 L169.605506,4.83370787 L164.809213,16.6473034 Z M160.937528,26.1835955 L157.873483,26.1835955 L168.28618,0.753370787 L171.633708,0.753370787 L181.255618,26.1835955 L177.683596,26.1835955 L175.045281,19.187191 L163.809101,19.187191 L160.937528,26.1835955 L160.937528,26.1835955 Z" id="Fill-10"></path>
                <path d="M202.156517,20.7273034 L205.204045,20.7273034 L205.204045,20.8907865 C205.204045,21.8932584 204.857191,22.9119101 204.163146,23.9467416 C203.469438,24.981573 202.527303,25.7416854 201.336742,26.2267416 C200.145843,26.7111236 198.748315,26.9538202 197.142472,26.9538202 C193.908539,26.9538202 191.265506,25.8293258 189.212022,23.5803371 C187.157865,21.3313483 186.131461,17.9639326 186.131461,13.4767416 C186.131461,9.01179775 187.152472,5.6494382 189.195506,3.38966292 C191.237865,1.13022472 193.89236,0 197.158989,0 C198.753371,0 200.145843,0.242359551 201.336742,0.727078652 C202.527303,1.21213483 203.469438,1.98033708 204.163146,3.03134831 C204.857191,4.08269663 205.204045,5.09325843 205.204045,6.06269663 L205.204045,6.22651685 L202.156517,6.22651685 L202.156517,6.06235955 C202.156517,5.43977528 201.961685,4.84146067 201.574045,4.26808989 C201.185393,3.6947191 200.627865,3.26359551 199.900449,2.97370787 C199.173034,2.68449438 198.300674,2.53955056 197.283371,2.53955056 C194.680112,2.53955056 192.741236,3.56629213 191.466742,5.62011236 C190.192921,7.67393258 189.555506,10.2896629 189.555506,13.4686517 C189.555506,16.68 190.195618,19.307191 191.475506,21.3498876 C192.755393,23.3925843 194.685506,24.4139326 197.266854,24.4139326 C199.039213,24.4139326 200.296854,24.0498876 201.040787,23.3207865 C201.784045,22.5923596 202.156517,21.7823596 202.156517,20.8904494 L202.156517,20.7273034" id="Fill-11"></path>
                <polyline id="Fill-12" points="211.726517 26.1835955 211.726517 0.753370787 226.096517 0.753370787 226.096517 3.55550562 215.036629 3.55550562 215.036629 11.5678652 224.704045 11.5678652 224.704045 14.1074157 215.036629 14.1074157 215.036629 23.3814607 226.981348 23.3814607 226.981348 26.1835955 211.726517 26.1835955"></polyline>
            </g>
            <g id="sub-text" transform="translate(72.795506, 43.862697)" fill="#DF542C">
                <polygon id="Fill-13" points="-1.49692992e-16 9.18269663 1.16292135 9.18269663 1.16292135 0.266629213 -1.49692992e-16 0.266629213"></polygon>
                <polyline id="Fill-14" points="6.03808989 9.18269663 4.96752809 9.18269663 4.96752809 0.266629213 6.11629213 0.266629213 10.1882022 6.60404494 10.5606742 7.30752809 10.5374157 6.60876404 10.5374157 0.266629213 11.6079775 0.266629213 11.6079775 9.18269663 10.4693258 9.18269663 6.39168539 2.81730337 6.01516854 2.10033708 6.03808989 2.81730337 6.03808989 9.18269663"></polyline>
                <path d="M16.5842697,8.20382022 L17.9524719,8.20382022 C18.7668539,8.20382022 19.3810112,8.0841573 19.7959551,7.84483146 C20.2105618,7.60550562 20.5280899,7.23033708 20.7485393,6.71831461 C20.9689888,6.20629213 21.0792135,5.56382022 21.0792135,4.79157303 C21.0792135,4.01561798 20.978764,3.3488764 20.7785393,2.79067416 C20.5779775,2.23280899 20.2719101,1.82191011 19.86,1.55865169 C19.448427,1.29438202 18.8035955,1.16258427 17.9251685,1.16258427 L16.5842697,1.16258427 L16.5842697,8.20382022 Z M15.4216854,9.18269663 L15.4216854,0.266629213 L17.8850562,0.266629213 C19.0830337,0.266629213 19.9601124,0.429101124 20.5162921,0.753707865 C21.0724719,1.07865169 21.5066292,1.5758427 21.8191011,2.2452809 C22.131573,2.91438202 22.2879775,3.72876404 22.2879775,4.68775281 C22.2879775,5.58876404 22.1467416,6.36910112 21.8649438,7.0294382 C21.5831461,7.6894382 21.1567416,8.21359551 20.5850562,8.60123596 C20.0133708,8.98853933 19.1673034,9.18269663 18.0458427,9.18269663 L15.4216854,9.18269663 L15.4216854,9.18269663 Z" id="Fill-15"></path>
                <polyline id="Fill-16" points="25.7841573 9.18269663 25.7841573 0.266629213 30.8258427 0.266629213 30.8258427 1.24550562 26.9467416 1.24550562 26.9467416 4.06314607 30.3340449 4.06314607 30.3340449 4.95 26.9467416 4.95 26.9467416 8.20382022 31.1379775 8.20382022 31.1379775 9.18269663 25.7841573 9.18269663"></polyline>
                <path d="M35.8388764,4.77505618 L36.6192135,4.77505618 C37.6439326,4.77505618 38.3194382,4.57719101 38.6450562,4.18146067 C38.9710112,3.78573034 39.1341573,3.31179775 39.1341573,2.75966292 C39.1341573,2.28134831 39.0030337,1.89539326 38.7414607,1.60247191 C38.4798876,1.30921348 37.9607865,1.16258427 37.1834831,1.16258427 L35.8388764,1.16258427 L35.8388764,4.77505618 Z M35.8388764,9.18269663 L34.6762921,9.18269663 L34.6762921,0.266629213 L37.1578652,0.266629213 C38.104382,0.266629213 38.7717978,0.363370787 39.1591011,0.556179775 C39.5467416,0.749325843 39.8393258,1.03280899 40.037191,1.40662921 C40.2347191,1.78044944 40.3334831,2.21393258 40.3334831,2.70707865 C40.3334831,3.54337079 40.0496629,4.24516854 39.4816854,4.81179775 C38.9140449,5.37876404 38.0669663,5.66224719 36.9407865,5.66224719 L35.8388764,5.66224719 L35.8388764,9.18269663 L35.8388764,9.18269663 Z" id="Fill-17"></path>
                <polyline id="Fill-18" points="43.6597753 9.18269663 43.6597753 0.266629213 48.7014607 0.266629213 48.7014607 1.24550562 44.8226966 1.24550562 44.8226966 4.06314607 48.2096629 4.06314607 48.2096629 4.95 44.8226966 4.95 44.8226966 8.20382022 49.0139326 8.20382022 49.0139326 9.18269663 43.6597753 9.18269663"></polyline>
                <polyline id="Fill-19" points="53.622809 9.18269663 52.5519101 9.18269663 52.5519101 0.266629213 53.7006742 0.266629213 57.7725843 6.60404494 58.1450562 7.30752809 58.1217978 6.60876404 58.1217978 0.266629213 59.1926966 0.266629213 59.1926966 9.18269663 58.0540449 9.18269663 53.9760674 2.81730337 53.5995506 2.10033708 53.622809 2.81730337 53.622809 9.18269663"></polyline>
                <path d="M64.1689888,8.20382022 L65.537191,8.20382022 C66.351236,8.20382022 66.9657303,8.0841573 67.3803371,7.84483146 C67.7949438,7.60550562 68.1124719,7.23033708 68.3332584,6.71831461 C68.5533708,6.20629213 68.6635955,5.56382022 68.6635955,4.79157303 C68.6635955,4.01561798 68.5634831,3.3488764 68.3629213,2.79067416 C68.1623596,2.23280899 67.8562921,1.82191011 67.4447191,1.55865169 C67.032809,1.29438202 66.3879775,1.16258427 65.5095506,1.16258427 L64.1689888,1.16258427 L64.1689888,8.20382022 Z M63.0064045,9.18269663 L63.0064045,0.266629213 L65.4697753,0.266629213 C66.6674157,0.266629213 67.5444944,0.429101124 68.1006742,0.753707865 C68.6568539,1.07865169 69.0910112,1.5758427 69.4034831,2.2452809 C69.7159551,2.91438202 69.8723596,3.72876404 69.8723596,4.68775281 C69.8723596,5.58876404 69.7314607,6.36910112 69.4496629,7.0294382 C69.1675281,7.6894382 68.7411236,8.21359551 68.1694382,8.60123596 C67.5980899,8.98853933 66.7520225,9.18269663 65.6302247,9.18269663 L63.0064045,9.18269663 L63.0064045,9.18269663 Z" id="Fill-20"></path>
                <polyline id="Fill-21" points="73.3688764 9.18269663 73.3688764 0.266629213 78.4105618 0.266629213 78.4105618 1.24550562 74.5314607 1.24550562 74.5314607 4.06314607 77.918427 4.06314607 77.918427 4.95 74.5314607 4.95 74.5314607 8.20382022 78.7230337 8.20382022 78.7230337 9.18269663 73.3688764 9.18269663"></polyline>
                <polyline id="Fill-22" points="83.331573 9.18269663 82.2606742 9.18269663 82.2606742 0.266629213 83.4094382 0.266629213 87.4813483 6.60404494 87.8538202 7.30752809 87.8305618 6.60876404 87.8305618 0.266629213 88.9014607 0.266629213 88.9014607 9.18269663 87.7624719 9.18269663 83.6855056 2.81730337 83.3083146 2.10033708 83.331573 2.81730337 83.331573 9.18269663"></polyline>
                <polyline id="Fill-23" points="95.0814607 9.18269663 95.0814607 1.16258427 92.048427 1.16258427 92.048427 0.266629213 99.222809 0.266629213 99.222809 1.16258427 96.2352809 1.16258427 96.2352809 9.18269663 95.0814607 9.18269663"></polyline>
                <polyline id="Fill-24" points="108.389663 9.18269663 108.389663 0.266629213 113.431011 0.266629213 113.431011 1.24550562 109.55191 1.24550562 109.55191 4.06314607 112.939551 4.06314607 112.939551 4.95 109.55191 4.95 109.55191 8.20382022 113.743146 8.20382022 113.743146 9.18269663 108.389663 9.18269663"></polyline>
                <path d="M117.060674,7.17876404 L118.223596,7.17876404 L118.223596,7.23404494 C118.223596,7.72719101 118.397191,8.07134831 118.745056,8.26550562 C119.093258,8.46033708 119.556404,8.55741573 120.135169,8.55741573 C120.640787,8.55741573 121.064831,8.40977528 121.408652,8.1141573 C121.751124,7.81853933 121.923371,7.42988764 121.923371,6.9488764 C121.923371,6.55685393 121.776067,6.23662921 121.481798,5.98853933 C121.184494,5.74314607 120.735843,5.49842697 120.135169,5.25303371 L119.671348,5.06460674 C119.039663,4.80438202 118.56809,4.54617978 118.255281,4.29033708 C117.942809,4.03449438 117.710225,3.75168539 117.556854,3.44258427 C117.404157,3.13280899 117.326966,2.78696629 117.326966,2.40370787 C117.326966,1.72988764 117.565281,1.1605618 118.042247,0.696404494 C118.518202,0.232247191 119.263483,0 120.277753,0 C121.209101,0 121.865056,0.17258427 122.244607,0.517078652 C122.624831,0.861573034 122.814607,1.26370787 122.814607,1.72348315 L122.814607,1.78314607 L121.651685,1.78314607 L121.651685,1.72348315 C121.651685,1.57853933 121.593708,1.43460674 121.477753,1.29134831 C121.360787,1.14808989 121.185506,1.04494382 120.951236,0.981910112 C120.716292,0.918539326 120.460112,0.887191011 120.181348,0.887191011 C119.611685,0.887191011 119.189663,1.0294382 118.914944,1.31460674 C118.640899,1.60011236 118.503708,1.9247191 118.503708,2.2894382 C118.503708,2.53483146 118.568764,2.76573034 118.699213,2.98146067 C118.829326,3.19752809 119.008989,3.37719101 119.236854,3.5194382 C119.465393,3.66202247 119.848652,3.85146067 120.387978,4.08741573 L120.935393,4.32640449 C121.80809,4.70359551 122.391573,5.10235955 122.68618,5.52202247 C122.977079,5.93898876 123.122697,6.38831461 123.122697,6.86966292 C123.122697,7.32 123.003708,7.75483146 122.766067,8.17314607 C122.529101,8.59146067 122.199101,8.90966292 121.777753,9.12707865 C121.357416,9.34483146 120.795506,9.45370787 120.094045,9.45370787 C119.429663,9.45370787 118.874157,9.3741573 118.428539,9.21438202 C117.982584,9.0552809 117.642809,8.79370787 117.409888,8.42865169 C117.177303,8.06426966 117.060674,7.6658427 117.060674,7.23404494 L117.060674,7.17876404" id="Fill-25"></path>
                <polyline id="Fill-26" points="128.893483 9.18269663 128.893483 1.16258427 125.860787 1.16258427 125.860787 0.266629213 133.034831 0.266629213 133.034831 1.16258427 130.047303 1.16258427 130.047303 9.18269663 128.893483 9.18269663"></polyline>
                <path d="M137.946404,5.84157303 L141.186404,5.84157303 L139.624045,1.7005618 L137.946404,5.84157303 Z M136.585955,9.18269663 L135.511011,9.18269663 L139.16427,0.266629213 L140.335955,0.266629213 L143.709438,9.18269663 L142.454831,9.18269663 L141.531573,6.72842697 L137.597191,6.72842697 L136.585955,9.18269663 L136.585955,9.18269663 Z" id="Fill-27"></path>
                <polyline id="Fill-28" points="149.214607 9.18269663 149.214607 1.16258427 146.181236 1.16258427 146.181236 0.266629213 153.354944 0.266629213 153.354944 1.16258427 150.367753 1.16258427 150.367753 9.18269663 149.214607 9.18269663"></polyline>
                <polyline id="Fill-29" points="156.497191 9.18269663 156.497191 0.266629213 161.539213 0.266629213 161.539213 1.24550562 157.660787 1.24550562 157.660787 4.06314607 161.047416 4.06314607 161.047416 4.95 157.660787 4.95 157.660787 8.20382022 161.852022 8.20382022 161.852022 9.18269663 156.497191 9.18269663"></polyline>
                <path d="M173.182921,5.84157303 L176.423258,5.84157303 L174.860225,1.7005618 L173.182921,5.84157303 Z M171.822472,9.18269663 L170.747191,9.18269663 L174.400787,0.266629213 L175.572472,0.266629213 L178.945955,9.18269663 L177.691348,9.18269663 L176.76809,6.72842697 L172.833708,6.72842697 L171.822472,9.18269663 L171.822472,9.18269663 Z" id="Fill-30"></path>
                <path d="M188.458315,8.7741573 C187.514831,9.22719101 186.61382,9.45370787 185.756292,9.45370787 C184.861685,9.45370787 184.138652,9.27573034 183.587191,8.92078652 C183.035393,8.56550562 182.595169,8.05449438 182.265506,7.38775281 C181.93618,6.72168539 181.771348,5.86752809 181.771348,4.82561798 C181.771348,3.65191011 181.927753,2.73977528 182.239888,2.0888764 C182.552697,1.43797753 182.992921,0.926629213 183.559888,0.556179775 C184.12618,0.185393258 184.798989,0 185.576966,0 C186.109888,0 186.594944,0.0839325843 187.031461,0.251797753 C187.467978,0.419325843 187.815506,0.674494382 188.07236,1.01696629 C188.330225,1.3594382 188.458315,1.6988764 188.458315,2.03595506 L188.458315,2.09561798 L187.387416,2.09561798 L187.387416,2.03595506 C187.387416,1.83067416 187.308202,1.63853933 187.149101,1.45955056 C186.988989,1.28022472 186.780337,1.14 186.521798,1.0388764 C186.262584,0.937752809 185.969326,0.887191011 185.641685,0.887191011 C184.774382,0.887191011 184.113371,1.22696629 183.658315,1.90617978 C183.203258,2.58573034 182.975393,3.52078652 182.975393,4.71101124 C182.975393,5.90089888 183.209326,6.84101124 183.676854,7.53134831 C184.143708,8.22168539 184.802022,8.56685393 185.650449,8.56685393 C186.15,8.56685393 186.729101,8.44719101 187.387416,8.20786517 L187.387416,5.66224719 L185.379438,5.66224719 L185.379438,4.77505618 L188.458315,4.77505618 L188.458315,8.7741573" id="Fill-31"></path>
                <polyline id="Fill-32" points="192.134157 9.18269663 192.134157 0.266629213 197.175506 0.266629213 197.175506 1.24550562 193.296742 1.24550562 193.296742 4.06314607 196.683708 4.06314607 196.683708 4.95 193.296742 4.95 193.296742 8.20382022 197.488315 8.20382022 197.488315 9.18269663 192.134157 9.18269663"></polyline>
                <polyline id="Fill-33" points="202.096854 9.18269663 201.025955 9.18269663 201.025955 0.266629213 202.175393 0.266629213 206.247303 6.60404494 206.619101 7.30752809 206.596517 6.60876404 206.596517 0.266629213 207.666742 0.266629213 207.666742 9.18269663 206.52809 9.18269663 202.450449 2.81730337 202.073596 2.10033708 202.096854 2.81730337 202.096854 9.18269663"></polyline>
                <polyline id="Fill-34" points="213.847416 9.18269663 213.847416 1.16258427 210.814045 1.16258427 210.814045 0.266629213 217.987753 0.266629213 217.987753 1.16258427 215.000562 1.16258427 215.000562 9.18269663 213.847416 9.18269663"></polyline>
                <path d="M220.909888,7.17876404 L222.072809,7.17876404 L222.072809,7.23404494 C222.072809,7.72719101 222.246404,8.07134831 222.59427,8.26550562 C222.942135,8.46033708 223.405281,8.55741573 223.984382,8.55741573 C224.49,8.55741573 224.914045,8.40977528 225.257865,8.1141573 C225.600337,7.81853933 225.772584,7.42988764 225.772584,6.9488764 C225.772584,6.55685393 225.624944,6.23662921 225.331011,5.98853933 C225.033708,5.74314607 224.585056,5.49842697 223.984382,5.25303371 L223.520562,5.06460674 C222.888876,4.80438202 222.417303,4.54617978 222.104494,4.29033708 C221.792022,4.03449438 221.559438,3.75168539 221.406067,3.44258427 C221.253371,3.13280899 221.17618,2.78696629 221.17618,2.40370787 C221.17618,1.72988764 221.414494,1.1605618 221.891461,0.696404494 C222.367416,0.232247191 223.112697,0 224.126966,0 C225.058315,0 225.71427,0.17258427 226.09382,0.517078652 C226.474045,0.861573034 226.66382,1.26370787 226.66382,1.72348315 L226.66382,1.78314607 L225.500899,1.78314607 L225.500899,1.72348315 C225.500899,1.57853933 225.442584,1.43460674 225.326966,1.29134831 C225.21,1.14808989 225.034719,1.04494382 224.800449,0.981910112 C224.565506,0.918539326 224.308989,0.887191011 224.030562,0.887191011 C223.460899,0.887191011 223.038876,1.0294382 222.764157,1.31460674 C222.490112,1.60011236 222.352921,1.9247191 222.352921,2.2894382 C222.352921,2.53483146 222.417978,2.76573034 222.548427,2.98146067 C222.678539,3.19752809 222.857865,3.37719101 223.086067,3.5194382 C223.314607,3.66202247 223.697865,3.85146067 224.237191,4.08741573 L224.78427,4.32640449 C225.657303,4.70359551 226.240787,5.10235955 226.535393,5.52202247 C226.826292,5.93898876 226.97191,6.38831461 226.97191,6.86966292 C226.97191,7.32 226.852921,7.75483146 226.615281,8.17314607 C226.378315,8.59146067 226.048315,8.90966292 225.626966,9.12707865 C225.206629,9.34483146 224.644719,9.45370787 223.943258,9.45370787 C223.278876,9.45370787 222.723371,9.3741573 222.277416,9.21438202 C221.831798,9.0552809 221.491685,8.79370787 221.259101,8.42865169 C221.026517,8.06426966 220.909888,7.6658427 220.909888,7.23404494 L220.909888,7.17876404" id="Fill-35"></path>
            </g>
            <g id="grey-shape" transform="translate(32.399663, 0.065730)" fill="#464E53">
                <polyline id="Fill-36" points="21.1189888 3.70449438 21.1189888 12.1193258 15.0107865 8.41483146 15.0107865 0 21.1189888 3.70449438"></polyline>
                <polyline id="Fill-38" points="0.0583146067 1.46359551 28.7865169 18.3751685 28.7865169 28.6388764 24.608427 26.2280899 24.608427 44.64 14.3379775 38.7101124 14.3379775 21.8794382 0 13.5980899 0.0583146067 1.46359551"></polyline>
            </g>
            <polygon id="orange-shape" fill="#DF542C" points="14.7188764 40.4322472 22.7275281 45.0535955 30.7280899 49.675618 38.7364045 45.0535955 44.5034831 41.7192135 54.7526966 47.6632584 43.868764 53.9494382 30.7280899 61.5360674 4.44842697 46.362809 4.44842697 26.2938202 0.270337079 28.7046067 0.270337079 18.4408989 28.9985393 1.52932584 29.0575281 13.6638202 14.7188764 21.9451685"></polygon>
        </g>
    </g>
</svg>