<?xml version="1.0" encoding="UTF-8"?>
<svg width="60px" height="53px" viewBox="0 0 60 53" version="1.1" xmlns="http://www.w3.org/2000/svg" xmlns:xlink="http://www.w3.org/1999/xlink">
    <!-- Generator: Sketch 42 (36781) - http://www.bohemiancoding.com/sketch -->
    <title>shakinghands.3</title>
    <desc>Created with Sketch.</desc>
    <defs>
        <path d="M19.106,0.781 C19.884,0.003 21.142,2.77555756e-17 21.928,0.786 L24.759,3.617 C25.539,4.397 25.537,5.664 24.763,6.438 L6.367,24.834 C5.589,25.612 4.331,25.616 3.546,24.83 L0.714,21.999 C-0.066,21.218 -0.064,19.951 0.71,19.177 L19.106,0.781" id="path-1"></path>
        <path d="M25.29,19.177 C26.068,19.955 26.072,21.213 25.286,21.999 L22.454,24.83 C21.674,25.61 20.407,25.608 19.633,24.834 L1.237,6.438 C0.459,5.66 0.455,4.402 1.241,3.617 L4.072,0.786 C4.853,0.005 6.12,0.008 6.894,0.781 L25.29,19.177" id="path-3"></path>
    </defs>
    <g id="Page-1" stroke="none" stroke-width="1" fill="none" fill-rule="evenodd">
        <g id="shakinghands.3">
            <g id="outlined">
                <g id="Imported-Layers">
                    <path d="M33.535,51.577 C33.333,51.577 33.129,51.516 32.955,51.391 C32.547,51.101 22.939,44.223 18.687,39.971 C14.434,35.718 7.557,26.109 7.266,25.702 C6.982,25.305 7.027,24.76 7.373,24.414 L24.343,7.443 C24.689,7.097 25.236,7.051 25.635,7.339 C25.655,7.354 27.699,8.826 30.646,11.077 C31.085,11.413 31.169,12.04 30.833,12.479 C30.498,12.916 29.871,13.003 29.432,12.667 C27.513,11.201 25.984,10.07 25.153,9.462 L9.389,25.227 C11.065,27.534 16.606,35.062 20.101,38.557 C23.596,42.052 31.123,47.592 33.431,49.268 L49.197,33.501 C47.521,31.193 41.979,23.666 38.485,20.172 C38.095,19.781 38.095,19.148 38.485,18.758 C38.876,18.367 39.509,18.367 39.899,18.758 C44.152,23.01 51.029,32.618 51.32,33.025 C51.604,33.423 51.559,33.968 51.213,34.313 L34.243,51.284 C34.049,51.477 33.793,51.577 33.535,51.577" id="Fill-1293" fill="#535353" fill-rule="nonzero"></path>
                    <path d="M46.264,38.85 C46.008,38.85 45.752,38.752 45.557,38.557 L35.657,28.656 C35.267,28.266 35.267,27.633 35.657,27.242 C36.048,26.852 36.681,26.852 37.071,27.242 L46.971,37.143 C47.361,37.533 47.361,38.166 46.971,38.557 C46.775,38.752 46.52,38.85 46.264,38.85" id="Fill-1294" fill="#535353" fill-rule="nonzero"></path>
                    <path d="M42.021,43.092 C41.765,43.092 41.509,42.994 41.314,42.799 L31.414,32.899 C31.023,32.509 31.023,31.876 31.414,31.485 C31.805,31.095 32.438,31.095 32.828,31.485 L42.728,41.385 C43.119,41.775 43.119,42.408 42.728,42.799 C42.533,42.994 42.277,43.092 42.021,43.092" id="Fill-1295" fill="#535353" fill-rule="nonzero"></path>
                    <path d="M37.778,47.335 C37.522,47.335 37.267,47.237 37.071,47.042 L27.172,37.142 C26.781,36.751 26.781,36.118 27.172,35.727 C27.563,35.337 28.195,35.337 28.586,35.727 L38.485,45.628 C38.876,46.019 38.876,46.651 38.485,47.042 C38.29,47.237 38.034,47.335 37.778,47.335" id="Fill-1296" fill="#535353" fill-rule="nonzero"></path>
                    <g id="Group-1299" transform="translate(1.000000, 1.000000)">
                        <g id="Fill-1297-Clipped">
                            <mask id="mask-2" fill="white">
                                <use xlink:href="#path-1"></use>
                            </mask>
                            <g id="path-1"></g>
                            <polygon id="Fill-1297" fill="#F15B25" fill-rule="nonzero" mask="url(#mask-2)" points="33.243 5.029 4.958 33.314 -7.77 20.586 20.515 -7.698"></polygon>
                        </g>
                    </g>
                    <path d="M5.96,27.418 C5.161,27.418 4.407,27.106 3.839,26.538 L1.007,23.706 C-0.162,22.537 -0.164,20.637 1.003,19.471 L19.399,1.074 C20.53,-0.058 22.497,-0.058 23.634,1.077 L26.466,3.909 C27.635,5.078 27.637,6.979 26.47,8.144 L8.074,26.541 C7.508,27.106 6.758,27.418 5.96,27.418 L5.96,27.418 Z M21.514,2.197 C21.25,2.197 21.001,2.301 20.814,2.488 L2.417,20.885 C2.03,21.271 2.032,21.902 2.421,22.292 L5.252,25.123 C5.633,25.504 6.284,25.504 6.659,25.127 L25.056,6.731 C25.443,6.344 25.441,5.713 25.052,5.323 L22.221,2.492 C22.03,2.302 21.779,2.197 21.514,2.197 L21.514,2.197 Z" id="Fill-1300" fill="#535353" fill-rule="nonzero"></path>
                    <g id="Group-1303" transform="translate(33.000000, 1.000000)">
                        <g id="Fill-1301-Clipped">
                            <mask id="mask-4" fill="white">
                                <use xlink:href="#path-3"></use>
                            </mask>
                            <g id="path-3"></g>
                            <polyline id="Fill-1301" fill="#F15B25" fill-rule="nonzero" mask="url(#mask-4)" points="33.77 20.586 21.042 33.314 -7.243 5.029 5.485 -7.698 33.77 20.586"></polyline>
                        </g>
                    </g>
                    <path d="M54.041,27.415 C53.241,27.415 52.49,27.104 51.926,26.541 L33.53,8.144 C32.964,7.579 32.652,6.828 32.653,6.03 C32.653,5.231 32.966,4.477 33.534,3.909 L36.365,1.078 C37.496,-0.054 39.473,-0.054 40.601,1.074 L58.997,19.471 C59.563,20.036 59.875,20.787 59.874,21.585 C59.874,22.385 59.561,23.138 58.993,23.706 L56.162,26.537 C55.596,27.103 54.843,27.415 54.041,27.415 L54.041,27.415 Z M38.486,2.2 C38.218,2.2 37.967,2.304 37.779,2.492 L34.948,5.323 C34.758,5.514 34.653,5.765 34.653,6.03 C34.653,6.294 34.756,6.543 34.944,6.731 L53.34,25.127 C53.712,25.498 54.372,25.498 54.748,25.123 L57.579,22.292 C57.769,22.102 57.874,21.851 57.874,21.585 C57.874,21.321 57.771,21.072 57.583,20.885 L39.186,2.488 C39.001,2.303 38.752,2.2 38.486,2.2 L38.486,2.2 Z" id="Fill-1304" fill="#535353" fill-rule="nonzero"></path>
                    <path d="M25.757,52.284 C25.501,52.284 25.246,52.187 25.05,51.991 L8.08,35.021 C7.892,34.833 7.787,34.579 7.787,34.313 C7.787,34.048 7.892,33.794 8.08,33.606 L11.615,30.071 C12.006,29.681 12.639,29.681 13.029,30.071 C13.42,30.462 13.42,31.095 13.029,31.485 L10.201,34.313 L25.757,49.87 L28.586,47.042 C28.977,46.651 29.609,46.651 30,47.042 C30.391,47.433 30.391,48.065 30,48.456 L26.464,51.991 C26.269,52.187 26.013,52.284 25.757,52.284" id="Fill-1305" fill="#535353" fill-rule="nonzero"></path>
                    <polyline id="Fill-1306" fill="#535353" fill-rule="nonzero" points="13.029 39.971 11.615 38.557 15.151 35.021 16.565 36.435 13.029 39.971"></polyline>
                    <polyline id="Fill-1307" fill="#535353" fill-rule="nonzero" points="17.272 44.213 15.858 42.799 19.394 39.264 20.808 40.678 17.272 44.213"></polyline>
                    <polyline id="Fill-1308" fill="#535353" fill-rule="nonzero" points="21.515 48.456 20.101 47.042 23.635 43.506 25.05 44.92 21.515 48.456"></polyline>
                    <path d="M23.049,25.085 C23.018,25.085 22.986,25.084 22.955,25.081 C19.053,24.714 18.644,24.305 18.424,24.085 C17.483,23.145 18.468,21.757 18.889,21.164 C19.745,19.958 21.324,18.208 23.718,15.815 C28.99,10.543 35.622,8.503 35.902,8.419 C36.432,8.259 36.988,8.559 37.147,9.087 C37.307,9.615 37.008,10.173 36.479,10.333 C36.416,10.352 30.037,12.324 25.132,17.229 C21.857,20.504 20.678,22.019 20.257,22.7 C20.905,22.828 21.94,22.968 22.875,23.063 C24.116,22.496 28.795,20.443 31.077,20.706 C32.743,20.892 36.022,19.046 37.421,18.254 C37.67,18.113 37.882,17.994 38.047,17.905 C38.533,17.644 39.14,17.826 39.401,18.313 C39.663,18.799 39.48,19.405 38.994,19.667 C38.839,19.75 38.639,19.863 38.405,19.996 C36.572,21.03 33.153,22.951 30.849,22.692 C29.404,22.533 25.554,24.014 23.474,24.99 C23.341,25.053 23.195,25.085 23.049,25.085" id="Fill-1309" fill="#535353" fill-rule="nonzero"></path>
                    <path d="M47.38,30.365 C47.231,30.365 47.079,30.332 46.935,30.261 C46.441,30.015 46.24,29.414 46.486,28.92 L49.251,23.367 C49.496,22.872 50.095,22.67 50.592,22.917 C51.086,23.163 51.287,23.764 51.041,24.258 L48.276,29.81 C48.102,30.162 47.748,30.365 47.38,30.365" id="Fill-1310" fill="#535353" fill-rule="nonzero"></path>
                </g>
            </g>
        </g>
    </g>
</svg>