<?xml version="1.0" encoding="UTF-8"?>
<svg width="512px" height="512px" viewBox="0 0 512 512" version="1.1" xmlns="http://www.w3.org/2000/svg" xmlns:xlink="http://www.w3.org/1999/xlink">
    <!-- Generator: Sketch 59 (86127) - https://sketch.com -->
    <title>envelope-open-text-duotone</title>
    <desc>Created with Sketch.</desc>
    <g id="Page-1" stroke="none" stroke-width="1" fill="none" fill-rule="evenodd">
        <g id="envelope-open-text-duotone" transform="translate(0.000000, -1.000000)" fill-rule="nonzero">
            <path d="M448,97 L448,258.62 L284.12,377 C267.353778,389.152294 244.676222,389.152294 227.91,377 L64,258.62 L64,97 C64,79.326888 78.326888,65 96,65 L416,65 C433.673112,65 448,79.326888 448,97 Z" id="Path" fill="#F15B25"></path>
            <path d="M336,225 L176,225 C167.163444,225 160,232.163444 160,241 L160,257 C160,265.836556 167.163444,273 176,273 L336,273 C344.836556,273 352,265.836556 352,257 L352,241 C352,232.163444 344.836556,225 336,225 Z M352,161 C352,152.163444 344.836556,145 336,145 L176,145 C167.163444,145 160,152.163444 160,161 L160,177 C160,185.836556 167.163444,193 176,193 L336,193 C344.836556,193 352,185.836556 352,177 L352,161 Z M329.41,42.44 C312.6,30.18 279.2,0.65 256,1 C232.8,0.65 199.41,30.17 182.59,42.44 L152,65 L360,65 L329.41,42.44 Z M64,130 C40.12,147.69 21.33,161.65 18.39,164 C6.79743295,173.08589 0.0180929377,186.991094 0,201.72 L0,212.37 L64,258.61 L64,130 Z M493.61,164 C490.67,161.7 471.88,147.74 448,130.07 L448,258.61 L512,212.37 L512,201.72 C511.981907,186.991094 505.202567,173.08589 493.61,164 Z M256,418.13 C239.169281,418.13306 222.768181,412.816528 209.14,402.94 L0,251.86 L0,465 C0,491.509668 21.490332,513 48,513 L464,513 C490.509668,513 512,491.509668 512,465 L512,251.86 L302.86,402.94 C289.2265,412.806059 272.828885,418.121462 256,418.13 Z" id="Shape" fill="#333333"></path>
        </g>
    </g>
</svg>