<?xml version="1.0" encoding="UTF-8"?>
<svg width="60px" height="46px" viewBox="0 0 60 46" version="1.1" xmlns="http://www.w3.org/2000/svg" xmlns:xlink="http://www.w3.org/1999/xlink">
    <!-- Generator: Sketch 42 (36781) - http://www.bohemiancoding.com/sketch -->
    <title>comments.4</title>
    <desc>Created with Sketch.</desc>
    <defs>
        <path d="M7.2,25 L29.001,25 C31.769,25 34,22.762 34,20.001 L34,4.999 C34,2.241 31.762,0 29.001,0 L4.998,0 C2.231,0 0,2.238 0,4.999 L0,31 L7.2,25 L7.2,25 Z" id="path-1"></path>
    </defs>
    <g id="Page-1" stroke="none" stroke-width="1" fill="none" fill-rule="evenodd">
        <g id="comments.4">
            <g id="outlined">
                <g id="Interface_sliced">
                    <g id="Imported-Layers">
                        <path d="M1,33 C0.855,33 0.711,32.969 0.576,32.905 C0.225,32.741 0,32.388 0,32 L0,5.999 C0,2.691 2.69,0 5.998,0 L30.001,0 C33.309,0 36,2.694 36,6.006 L36,11.023 C36,11.576 35.553,12.023 35,12.023 C34.447,12.023 34,11.576 34,11.023 L34,6.006 C34,3.797 32.206,2 30.001,2 L5.998,2 C3.794,2 2,3.794 2,5.999 L2,29.865 L7.56,25.231 C7.739,25.082 7.966,25 8.2,25 L22.15,25 C22.703,25 23.15,25.447 23.15,26 C23.15,26.553 22.703,27 22.15,27 L8.562,27 L1.641,32.769 C1.457,32.921 1.229,33 1,33" id="Fill-1740" fill="#535353" fill-rule="nonzero"></path>
                        <g id="Group-1743" transform="translate(25.000000, 14.000000)">
                            <g id="Fill-1741-Clipped">
                                <mask id="mask-2" fill="white">
                                    <use xlink:href="#path-1"></use>
                                </mask>
                                <g id="path-1"></g>
                                <polygon id="Fill-1741" fill="#F15B25" fill-rule="nonzero" mask="url(#mask-2)" points="0 0 34 0 34 31 0 31"></polygon>
                            </g>
                        </g>
                        <path d="M25,46 C24.855,46 24.711,45.969 24.576,45.905 C24.225,45.741 24,45.388 24,45 L24,18.999 C24,15.691 26.69,13 29.998,13 L54.001,13 C57.309,13 60,15.691 60,18.999 L60,34.001 C60,37.309 57.309,40 54.001,40 L32.562,40 L25.641,45.769 C25.457,45.921 25.229,46 25,46 L25,46 Z M29.998,15 C27.794,15 26,16.794 26,18.999 L26,42.865 L31.56,38.231 C31.739,38.082 31.966,38 32.2,38 L54.001,38 C56.206,38 58,36.206 58,34.001 L58,18.999 C58,16.794 56.206,15 54.001,15 L29.998,15 L29.998,15 Z" id="Fill-1744" fill="#535353" fill-rule="nonzero"></path>
                        <path d="M32,30 C30.346,30 29,28.654 29,27 C29,25.346 30.346,24 32,24 C33.654,24 35,25.346 35,27 C35,28.654 33.654,30 32,30 L32,30 Z M32,26 C31.448,26 31,26.448 31,27 C31,27.552 31.448,28 32,28 C32.552,28 33,27.552 33,27 C33,26.448 32.552,26 32,26 L32,26 Z" id="Fill-1745" fill="#535353" fill-rule="nonzero"></path>
                        <path d="M42,30 C40.346,30 39,28.654 39,27 C39,25.346 40.346,24 42,24 C43.654,24 45,25.346 45,27 C45,28.654 43.654,30 42,30 L42,30 Z M42,26 C41.448,26 41,26.448 41,27 C41,27.552 41.448,28 42,28 C42.552,28 43,27.552 43,27 C43,26.448 42.552,26 42,26 L42,26 Z" id="Fill-1746" fill="#535353" fill-rule="nonzero"></path>
                        <path d="M52,30 C50.346,30 49,28.654 49,27 C49,25.346 50.346,24 52,24 C53.654,24 55,25.346 55,27 C55,28.654 53.654,30 52,30 L52,30 Z M52,26 C51.448,26 51,26.448 51,27 C51,27.552 51.448,28 52,28 C52.552,28 53,27.552 53,27 C53,26.448 52.552,26 52,26 L52,26 Z" id="Fill-1747" fill="#535353" fill-rule="nonzero"></path>
                        <path d="M8,17 C6.346,17 5,15.654 5,14 C5,12.346 6.346,11 8,11 C9.654,11 11,12.346 11,14 C11,15.654 9.654,17 8,17 L8,17 Z M8,13 C7.448,13 7,13.448 7,14 C7,14.552 7.448,15 8,15 C8.552,15 9,14.552 9,14 C9,13.448 8.552,13 8,13 L8,13 Z" id="Fill-1748" fill="#535353" fill-rule="nonzero"></path>
                        <path d="M18,17 C16.346,17 15,15.654 15,14 C15,12.346 16.346,11 18,11 C19.654,11 21,12.346 21,14 C21,15.654 19.654,17 18,17 L18,17 Z M18,13 C17.448,13 17,13.448 17,14 C17,14.552 17.448,15 18,15 C18.552,15 19,14.552 19,14 C19,13.448 18.552,13 18,13 L18,13 Z" id="Fill-1749" fill="#535353" fill-rule="nonzero"></path>
                    </g>
                </g>
            </g>
        </g>
    </g>
</svg>