<?xml version="1.0" encoding="UTF-8"?>
<svg width="16px" height="24px" viewBox="0 0 16 24" version="1.1" xmlns="http://www.w3.org/2000/svg" xmlns:xlink="http://www.w3.org/1999/xlink">
    <!-- Generator: Sketch 42 (36781) - http://www.bohemiancoding.com/sketch -->
    <title>lock.5</title>
    <desc>Created with Sketch.</desc>
    <defs></defs>
    <g id="Page-1" stroke="none" stroke-width="1" fill="none" fill-rule="evenodd">
        <g id="lock.5" fill-rule="nonzero" fill="#FFFFFF">
            <g id="Group">
                <path d="M14.5,12 C14.224,12 14,11.776 14,11.5 L14,7 C14,3.691 11.309,1 8,1 C4.691,1 2,3.691 2,7 L2,11.5 C2,11.776 1.776,12 1.5,12 C1.224,12 1,11.776 1,11.5 L1,7 C1,3.14 4.14,0 8,0 C11.86,0 15,3.14 15,7 L15,11.5 C15,11.776 14.776,12 14.5,12 Z" id="Shape"></path>
                <path d="M12.5,12 C12.224,12 12,11.776 12,11.5 L12,7 C12,4.794 10.206,3 8,3 C5.794,3 4,4.794 4,7 L4,11.5 C4,11.776 3.776,12 3.5,12 C3.224,12 3,11.776 3,11.5 L3,7 C3,4.243 5.243,2 8,2 C10.757,2 13,4.243 13,7 L13,11.5 C13,11.776 12.776,12 12.5,12 Z" id="Shape"></path>
                <path d="M13.5,24 L2.5,24 C1.122,24 0,22.878 0,21.5 L0,12.5 C0,11.673 0.673,11 1.5,11 L14.5,11 C15.327,11 16,11.673 16,12.5 L16,21.5 C16,22.878 14.878,24 13.5,24 Z M1.5,12 C1.224,12 1,12.224 1,12.5 L1,21.5 C1,22.327 1.673,23 2.5,23 L13.5,23 C14.327,23 15,22.327 15,21.5 L15,12.5 C15,12.224 14.776,12 14.5,12 L1.5,12 Z" id="Shape"></path>
                <path d="M9.5,20 L6.5,20 C6.339,20 6.188,19.923 6.094,19.792 C6,19.662 5.974,19.494 6.026,19.341 L6.65,17.469 C6.237,17.095 6,16.569 6,16 C6,14.897 6.897,14 8,14 C9.103,14 10,14.897 10,16 C10,16.569 9.763,17.095 9.35,17.47 L9.974,19.342 C10.025,19.494 9.999,19.662 9.906,19.793 C9.812,19.923 9.661,20 9.5,20 Z M7.194,19 L8.806,19 L8.287,17.444 C8.212,17.221 8.304,16.976 8.506,16.856 C8.815,16.672 9,16.352 9,16 C9,15.449 8.551,15 8,15 C7.449,15 7,15.449 7,16 C7,16.352 7.185,16.672 7.494,16.856 C7.696,16.976 7.787,17.221 7.713,17.444 L7.194,19 Z" id="Shape"></path>
            </g>
        </g>
    </g>
</svg>