<?xml version="1.0" encoding="UTF-8"?>
<svg width="576px" height="512px" viewBox="0 0 576 512" version="1.1" xmlns="http://www.w3.org/2000/svg" xmlns:xlink="http://www.w3.org/1999/xlink">
    <!-- Generator: Sketch 59 (86127) - https://sketch.com -->
    <title>phone-office-duotone</title>
    <desc>Created with Sketch.</desc>
    <g id="Page-1" stroke="none" stroke-width="1" fill="none" fill-rule="evenodd">
        <g id="phone-office-duotone" fill-rule="nonzero">
            <path d="M192,0 L128,0 C110.326888,0 96,14.326888 96,32 L96,384 C96,401.673112 110.326888,416 128,416 L192,416 C209.673112,416 224,401.673112 224,384 L224,32 C224,14.326888 209.673112,0 192,0 Z M496,384 L464,384 C455.163444,384 448,391.163444 448,400 L448,432 C448,440.836556 455.163444,448 464,448 L496,448 C504.836556,448 512,440.836556 512,432 L512,400 C512,391.163444 504.836556,384 496,384 Z M496,256 L464,256 C455.163444,256 448,263.163444 448,272 L448,304 C448,312.836556 455.163444,320 464,320 L496,320 C504.836556,320 512,312.836556 512,304 L512,272 C512,263.163444 504.836556,256 496,256 Z M368,384 L336,384 C327.163444,384 320,391.163444 320,400 L320,432 C320,440.836556 327.163444,448 336,448 L368,448 C376.836556,448 384,440.836556 384,432 L384,400 C384,391.163444 376.836556,384 368,384 Z M368,256 L336,256 C327.163444,256 320,263.163444 320,272 L320,304 C320,312.836556 327.163444,320 336,320 L368,320 C376.836556,320 384,312.836556 384,304 L384,272 C384,263.163444 376.836556,256 368,256 Z" id="Shape" fill="#F15B25"></path>
            <path d="M528,32 L256,32 L256,384 C255.961421,419.330232 227.330232,447.961421 192,448 L128,448 C92.6697684,447.961421 64.0385792,419.330232 64,384 L64,32 L48,32 C21.490332,32 0,53.490332 0,80 L0,464 C0,490.509668 21.490332,512 48,512 L528,512 C554.509668,512 576,490.509668 576,464 L576,80 C576,53.490332 554.509668,32 528,32 Z M384,432 C384,440.836556 376.836556,448 368,448 L336,448 C327.163444,448 320,440.836556 320,432 L320,400 C320,391.163444 327.163444,384 336,384 L368,384 C376.836556,384 384,391.163444 384,400 L384,432 Z M384,304 C384,312.836556 376.836556,320 368,320 L336,320 C327.163444,320 320,312.836556 320,304 L320,272 C320,263.163444 327.163444,256 336,256 L368,256 C376.836556,256 384,263.163444 384,272 L384,304 Z M512,432 C512,440.836556 504.836556,448 496,448 L464,448 C455.163444,448 448,440.836556 448,432 L448,400 C448,391.163444 455.163444,384 464,384 L496,384 C504.836556,384 512,391.163444 512,400 L512,432 Z M512,304 C512,312.836556 504.836556,320 496,320 L464,320 C455.163444,320 448,312.836556 448,304 L448,272 C448,263.163444 455.163444,256 464,256 L496,256 C504.836556,256 512,263.163444 512,272 L512,304 Z M512,192 L320,192 L320,96 L512,96 L512,192 Z" id="Shape" fill="#333333"></path>
        </g>
    </g>
</svg>