<?xml version="1.0" encoding="UTF-8"?>
<svg width="640px" height="448px" viewBox="0 0 640 448" version="1.1" xmlns="http://www.w3.org/2000/svg" xmlns:xlink="http://www.w3.org/1999/xlink">
    <!-- Generator: Sketch 59 (86127) - https://sketch.com -->
    <title>users-duotone</title>
    <desc>Created with Sketch.</desc>
    <g id="Page-1" stroke="none" stroke-width="1" fill="none" fill-rule="evenodd">
        <g id="users-duotone" fill-rule="nonzero">
            <path d="M96,192 C131.346224,192 160,163.346224 160,128 C160,92.653776 131.346224,64 96,64 C60.653776,64 32,92.653776 32,128 C32.0330777,163.332514 60.6674863,191.966922 96,192 Z M576,223.999962 L512,223.999962 C495.096468,223.981676 478.876312,230.671141 466.9,242.6 C507.986143,264.960469 535.89966,305.622769 542,352 L608,352 C625.673112,352 640,337.673112 640,320 L640,288 C639.966922,252.667486 611.332514,224.033078 576,223.999962 Z M64,223.999962 C28.6674863,224.033078 0.0330777378,252.667486 0,288 L0,320 C0,337.673112 14.326888,352 32,352 L97.9,352 C104.079689,305.62521 132.01682,264.982628 173.1,242.6 C161.123688,230.671141 144.903532,223.981676 128,223.999962 L64,223.999962 Z M544,192 C579.346224,192 608,163.346224 608,128 C608,92.653776 579.346224,64 544,64 C508.653776,64 480,92.653776 480,128 C480.033078,163.332514 508.667486,191.966922 544,192 Z" id="Shape" fill="#F15B25"></path>
            <path d="M396.8,256 L388.5,256 C367.16455,266.428349 343.747453,271.898036 320,272 C295.4,272 272.4,266 251.5,256 L243.2,256 C179.583658,256.01656 128.01656,307.583658 128,371.2 L128,400 C128,426.509668 149.490332,448 176,448 L464,448 C490.509668,448 512,426.509668 512,400 L512,371.2 C511.98344,307.583658 460.416342,256.01656 396.8,256 L396.8,256 Z M320,224.000016 C381.855892,224.000016 432,173.855892 432,112 C432,50.144108 381.855892,0 320,0 C258.144108,0 207.999984,50.144108 207.999984,112 C207.984072,141.709127 219.778923,170.206021 240.786451,191.213549 C261.793979,212.221077 290.290873,224.015928 320,224.000016 L320,224.000016 Z" id="Shape" fill="#333333"></path>
        </g>
    </g>
</svg>